<?xml version="1.0" encoding="utf-8"?>
<svg xmlns="http://www.w3.org/2000/svg" xmlns:xlink="http://www.w3.org/1999/xlink" width="800" height="400" viewBox="0 0 3200 1600">
<defs>
  <clipPath id="clip980">
    <rect x="0" y="0" width="3200" height="1600"/>
  </clipPath>
</defs>
<path clip-path="url(#clip980)" d="M0 1600 L3200 1600 L3200 0 L0 0  Z" fill="#ffffff" fill-rule="evenodd" fill-opacity="1"/>
<defs>
  <clipPath id="clip981">
    <rect x="640" y="0" width="2241" height="1600"/>
  </clipPath>
</defs>
<path clip-path="url(#clip980)" d="M157.191 1495.09 L1552.76 1495.09 L1552.76 298.472 L157.191 298.472  Z" fill="#ffffff" fill-rule="evenodd" fill-opacity="1"/>
<defs>
  <clipPath id="clip982">
    <rect x="157" y="298" width="1397" height="1198"/>
  </clipPath>
</defs>
<polyline clip-path="url(#clip982)" style="stroke:#000000; stroke-linecap:round; stroke-linejoin:round; stroke-width:2; stroke-opacity:0.1; fill:none" points="183.522,1495.09 183.522,298.472 "/>
<polyline clip-path="url(#clip982)" style="stroke:#000000; stroke-linecap:round; stroke-linejoin:round; stroke-width:2; stroke-opacity:0.1; fill:none" points="512.665,1495.09 512.665,298.472 "/>
<polyline clip-path="url(#clip982)" style="stroke:#000000; stroke-linecap:round; stroke-linejoin:round; stroke-width:2; stroke-opacity:0.1; fill:none" points="841.808,1495.09 841.808,298.472 "/>
<polyline clip-path="url(#clip982)" style="stroke:#000000; stroke-linecap:round; stroke-linejoin:round; stroke-width:2; stroke-opacity:0.1; fill:none" points="1170.95,1495.09 1170.95,298.472 "/>
<polyline clip-path="url(#clip982)" style="stroke:#000000; stroke-linecap:round; stroke-linejoin:round; stroke-width:2; stroke-opacity:0.1; fill:none" points="1500.09,1495.09 1500.09,298.472 "/>
<polyline clip-path="url(#clip982)" style="stroke:#000000; stroke-linecap:round; stroke-linejoin:round; stroke-width:2; stroke-opacity:0.1; fill:none" points="157.191,1379 1552.76,1379 "/>
<polyline clip-path="url(#clip982)" style="stroke:#000000; stroke-linecap:round; stroke-linejoin:round; stroke-width:2; stroke-opacity:0.1; fill:none" points="157.191,1209.76 1552.76,1209.76 "/>
<polyline clip-path="url(#clip982)" style="stroke:#000000; stroke-linecap:round; stroke-linejoin:round; stroke-width:2; stroke-opacity:0.1; fill:none" points="157.191,1040.52 1552.76,1040.52 "/>
<polyline clip-path="url(#clip982)" style="stroke:#000000; stroke-linecap:round; stroke-linejoin:round; stroke-width:2; stroke-opacity:0.1; fill:none" points="157.191,871.278 1552.76,871.278 "/>
<polyline clip-path="url(#clip982)" style="stroke:#000000; stroke-linecap:round; stroke-linejoin:round; stroke-width:2; stroke-opacity:0.1; fill:none" points="157.191,702.037 1552.76,702.037 "/>
<polyline clip-path="url(#clip982)" style="stroke:#000000; stroke-linecap:round; stroke-linejoin:round; stroke-width:2; stroke-opacity:0.1; fill:none" points="157.191,532.795 1552.76,532.795 "/>
<polyline clip-path="url(#clip982)" style="stroke:#000000; stroke-linecap:round; stroke-linejoin:round; stroke-width:2; stroke-opacity:0.1; fill:none" points="157.191,363.554 1552.76,363.554 "/>
<polyline clip-path="url(#clip980)" style="stroke:#000000; stroke-linecap:round; stroke-linejoin:round; stroke-width:4; stroke-opacity:1; fill:none" points="157.191,1495.09 1552.76,1495.09 "/>
<polyline clip-path="url(#clip980)" style="stroke:#000000; stroke-linecap:round; stroke-linejoin:round; stroke-width:4; stroke-opacity:1; fill:none" points="183.522,1495.09 183.522,1476.19 "/>
<polyline clip-path="url(#clip980)" style="stroke:#000000; stroke-linecap:round; stroke-linejoin:round; stroke-width:4; stroke-opacity:1; fill:none" points="512.665,1495.09 512.665,1476.19 "/>
<polyline clip-path="url(#clip980)" style="stroke:#000000; stroke-linecap:round; stroke-linejoin:round; stroke-width:4; stroke-opacity:1; fill:none" points="841.808,1495.09 841.808,1476.19 "/>
<polyline clip-path="url(#clip980)" style="stroke:#000000; stroke-linecap:round; stroke-linejoin:round; stroke-width:4; stroke-opacity:1; fill:none" points="1170.95,1495.09 1170.95,1476.19 "/>
<polyline clip-path="url(#clip980)" style="stroke:#000000; stroke-linecap:round; stroke-linejoin:round; stroke-width:4; stroke-opacity:1; fill:none" points="1500.09,1495.09 1500.09,1476.19 "/>
<path clip-path="url(#clip980)" d="M183.522 1532.41 Q179.911 1532.41 178.082 1535.97 Q176.277 1539.51 176.277 1546.64 Q176.277 1553.75 178.082 1557.31 Q179.911 1560.86 183.522 1560.86 Q187.157 1560.86 188.962 1557.31 Q190.791 1553.75 190.791 1546.64 Q190.791 1539.51 188.962 1535.97 Q187.157 1532.41 183.522 1532.41 M183.522 1528.7 Q189.332 1528.7 192.388 1533.31 Q195.467 1537.89 195.467 1546.64 Q195.467 1555.37 192.388 1559.98 Q189.332 1564.56 183.522 1564.56 Q177.712 1564.56 174.633 1559.98 Q171.578 1555.37 171.578 1546.64 Q171.578 1537.89 174.633 1533.31 Q177.712 1528.7 183.522 1528.7 Z" fill="#000000" fill-rule="nonzero" fill-opacity="1" /><path clip-path="url(#clip980)" d="M491.936 1559.95 L508.255 1559.95 L508.255 1563.89 L486.311 1563.89 L486.311 1559.95 Q488.973 1557.2 493.556 1552.57 Q498.163 1547.92 499.343 1546.57 Q501.589 1544.05 502.468 1542.31 Q503.371 1540.55 503.371 1538.86 Q503.371 1536.11 501.427 1534.37 Q499.505 1532.64 496.403 1532.64 Q494.204 1532.64 491.751 1533.4 Q489.32 1534.17 486.542 1535.72 L486.542 1530.99 Q489.366 1529.86 491.82 1529.28 Q494.274 1528.7 496.311 1528.7 Q501.681 1528.7 504.876 1531.39 Q508.07 1534.07 508.07 1538.56 Q508.07 1540.69 507.26 1542.61 Q506.473 1544.51 504.366 1547.11 Q503.788 1547.78 500.686 1550.99 Q497.584 1554.19 491.936 1559.95 Z" fill="#000000" fill-rule="nonzero" fill-opacity="1" /><path clip-path="url(#clip980)" d="M518.116 1529.33 L536.473 1529.33 L536.473 1533.26 L522.399 1533.26 L522.399 1541.74 Q523.417 1541.39 524.436 1541.23 Q525.454 1541.04 526.473 1541.04 Q532.26 1541.04 535.639 1544.21 Q539.019 1547.38 539.019 1552.8 Q539.019 1558.38 535.547 1561.48 Q532.075 1564.56 525.755 1564.56 Q523.579 1564.56 521.311 1564.19 Q519.065 1563.82 516.658 1563.08 L516.658 1558.38 Q518.741 1559.51 520.964 1560.07 Q523.186 1560.62 525.663 1560.62 Q529.667 1560.62 532.005 1558.52 Q534.343 1556.41 534.343 1552.8 Q534.343 1549.19 532.005 1547.08 Q529.667 1544.98 525.663 1544.98 Q523.788 1544.98 521.913 1545.39 Q520.061 1545.81 518.116 1546.69 L518.116 1529.33 Z" fill="#000000" fill-rule="nonzero" fill-opacity="1" /><path clip-path="url(#clip980)" d="M816.507 1529.33 L834.863 1529.33 L834.863 1533.26 L820.789 1533.26 L820.789 1541.74 Q821.808 1541.39 822.826 1541.23 Q823.845 1541.04 824.863 1541.04 Q830.65 1541.04 834.03 1544.21 Q837.41 1547.38 837.41 1552.8 Q837.41 1558.38 833.937 1561.48 Q830.465 1564.56 824.146 1564.56 Q821.97 1564.56 819.701 1564.19 Q817.456 1563.82 815.049 1563.08 L815.049 1558.38 Q817.132 1559.51 819.354 1560.07 Q821.576 1560.62 824.053 1560.62 Q828.058 1560.62 830.396 1558.52 Q832.734 1556.41 832.734 1552.8 Q832.734 1549.19 830.396 1547.08 Q828.058 1544.98 824.053 1544.98 Q822.178 1544.98 820.303 1545.39 Q818.451 1545.81 816.507 1546.69 L816.507 1529.33 Z" fill="#000000" fill-rule="nonzero" fill-opacity="1" /><path clip-path="url(#clip980)" d="M856.622 1532.41 Q853.011 1532.41 851.183 1535.97 Q849.377 1539.51 849.377 1546.64 Q849.377 1553.75 851.183 1557.31 Q853.011 1560.86 856.622 1560.86 Q860.257 1560.86 862.062 1557.31 Q863.891 1553.75 863.891 1546.64 Q863.891 1539.51 862.062 1535.97 Q860.257 1532.41 856.622 1532.41 M856.622 1528.7 Q862.433 1528.7 865.488 1533.31 Q868.567 1537.89 868.567 1546.64 Q868.567 1555.37 865.488 1559.98 Q862.433 1564.56 856.622 1564.56 Q850.812 1564.56 847.734 1559.98 Q844.678 1555.37 844.678 1546.64 Q844.678 1537.89 847.734 1533.31 Q850.812 1528.7 856.622 1528.7 Z" fill="#000000" fill-rule="nonzero" fill-opacity="1" /><path clip-path="url(#clip980)" d="M1144.8 1529.33 L1167.03 1529.33 L1167.03 1531.32 L1154.48 1563.89 L1149.6 1563.89 L1161.4 1533.26 L1144.8 1533.26 L1144.8 1529.33 Z" fill="#000000" fill-rule="nonzero" fill-opacity="1" /><path clip-path="url(#clip980)" d="M1176.19 1529.33 L1194.55 1529.33 L1194.55 1533.26 L1180.48 1533.26 L1180.48 1541.74 Q1181.49 1541.39 1182.51 1541.23 Q1183.53 1541.04 1184.55 1541.04 Q1190.34 1541.04 1193.72 1544.21 Q1197.1 1547.38 1197.1 1552.8 Q1197.1 1558.38 1193.62 1561.48 Q1190.15 1564.56 1183.83 1564.56 Q1181.66 1564.56 1179.39 1564.19 Q1177.14 1563.82 1174.74 1563.08 L1174.74 1558.38 Q1176.82 1559.51 1179.04 1560.07 Q1181.26 1560.62 1183.74 1560.62 Q1187.74 1560.62 1190.08 1558.52 Q1192.42 1556.41 1192.42 1552.8 Q1192.42 1549.19 1190.08 1547.08 Q1187.74 1544.98 1183.74 1544.98 Q1181.86 1544.98 1179.99 1545.39 Q1178.14 1545.81 1176.19 1546.69 L1176.19 1529.33 Z" fill="#000000" fill-rule="nonzero" fill-opacity="1" /><path clip-path="url(#clip980)" d="M1459.7 1559.95 L1467.34 1559.95 L1467.34 1533.59 L1459.03 1535.25 L1459.03 1530.99 L1467.29 1529.33 L1471.97 1529.33 L1471.97 1559.95 L1479.61 1559.95 L1479.61 1563.89 L1459.7 1563.89 L1459.7 1559.95 Z" fill="#000000" fill-rule="nonzero" fill-opacity="1" /><path clip-path="url(#clip980)" d="M1499.05 1532.41 Q1495.44 1532.41 1493.61 1535.97 Q1491.81 1539.51 1491.81 1546.64 Q1491.81 1553.75 1493.61 1557.31 Q1495.44 1560.86 1499.05 1560.86 Q1502.69 1560.86 1504.49 1557.31 Q1506.32 1553.75 1506.32 1546.64 Q1506.32 1539.51 1504.49 1535.97 Q1502.69 1532.41 1499.05 1532.41 M1499.05 1528.7 Q1504.86 1528.7 1507.92 1533.31 Q1511 1537.89 1511 1546.64 Q1511 1555.37 1507.92 1559.98 Q1504.86 1564.56 1499.05 1564.56 Q1493.24 1564.56 1490.16 1559.98 Q1487.11 1555.37 1487.11 1546.64 Q1487.11 1537.89 1490.16 1533.31 Q1493.24 1528.7 1499.05 1528.7 Z" fill="#000000" fill-rule="nonzero" fill-opacity="1" /><path clip-path="url(#clip980)" d="M1529.21 1532.41 Q1525.6 1532.41 1523.77 1535.97 Q1521.97 1539.51 1521.97 1546.64 Q1521.97 1553.75 1523.77 1557.31 Q1525.6 1560.86 1529.21 1560.86 Q1532.85 1560.86 1534.65 1557.31 Q1536.48 1553.75 1536.48 1546.64 Q1536.48 1539.51 1534.65 1535.97 Q1532.85 1532.41 1529.21 1532.41 M1529.21 1528.7 Q1535.02 1528.7 1538.08 1533.31 Q1541.16 1537.89 1541.16 1546.64 Q1541.16 1555.37 1538.08 1559.98 Q1535.02 1564.56 1529.21 1564.56 Q1523.4 1564.56 1520.32 1559.98 Q1517.27 1555.37 1517.27 1546.64 Q1517.27 1537.89 1520.32 1533.31 Q1523.4 1528.7 1529.21 1528.7 Z" fill="#000000" fill-rule="nonzero" fill-opacity="1" /><polyline clip-path="url(#clip980)" style="stroke:#000000; stroke-linecap:round; stroke-linejoin:round; stroke-width:4; stroke-opacity:1; fill:none" points="157.191,1495.09 157.191,298.472 "/>
<polyline clip-path="url(#clip980)" style="stroke:#000000; stroke-linecap:round; stroke-linejoin:round; stroke-width:4; stroke-opacity:1; fill:none" points="157.191,1379 176.089,1379 "/>
<polyline clip-path="url(#clip980)" style="stroke:#000000; stroke-linecap:round; stroke-linejoin:round; stroke-width:4; stroke-opacity:1; fill:none" points="157.191,1209.76 176.089,1209.76 "/>
<polyline clip-path="url(#clip980)" style="stroke:#000000; stroke-linecap:round; stroke-linejoin:round; stroke-width:4; stroke-opacity:1; fill:none" points="157.191,1040.52 176.089,1040.52 "/>
<polyline clip-path="url(#clip980)" style="stroke:#000000; stroke-linecap:round; stroke-linejoin:round; stroke-width:4; stroke-opacity:1; fill:none" points="157.191,871.278 176.089,871.278 "/>
<polyline clip-path="url(#clip980)" style="stroke:#000000; stroke-linecap:round; stroke-linejoin:round; stroke-width:4; stroke-opacity:1; fill:none" points="157.191,702.037 176.089,702.037 "/>
<polyline clip-path="url(#clip980)" style="stroke:#000000; stroke-linecap:round; stroke-linejoin:round; stroke-width:4; stroke-opacity:1; fill:none" points="157.191,532.795 176.089,532.795 "/>
<polyline clip-path="url(#clip980)" style="stroke:#000000; stroke-linecap:round; stroke-linejoin:round; stroke-width:4; stroke-opacity:1; fill:none" points="157.191,363.554 176.089,363.554 "/>
<path clip-path="url(#clip980)" d="M48.4736 1379.45 L78.1494 1379.45 L78.1494 1383.39 L48.4736 1383.39 L48.4736 1379.45 Z" fill="#000000" fill-rule="nonzero" fill-opacity="1" /><path clip-path="url(#clip980)" d="M88.2882 1361.72 L106.645 1361.72 L106.645 1365.66 L92.5706 1365.66 L92.5706 1374.13 Q93.5891 1373.78 94.6076 1373.62 Q95.6261 1373.43 96.6446 1373.43 Q102.432 1373.43 105.811 1376.61 Q109.191 1379.78 109.191 1385.19 Q109.191 1390.77 105.719 1393.87 Q102.246 1396.95 95.927 1396.95 Q93.7511 1396.95 91.4826 1396.58 Q89.2373 1396.21 86.8299 1395.47 L86.8299 1390.77 Q88.9132 1391.91 91.1354 1392.46 Q93.3576 1393.02 95.8345 1393.02 Q99.8391 1393.02 102.177 1390.91 Q104.515 1388.8 104.515 1385.19 Q104.515 1381.58 102.177 1379.48 Q99.8391 1377.37 95.8345 1377.37 Q93.9595 1377.37 92.0845 1377.79 Q90.2326 1378.2 88.2882 1379.08 L88.2882 1361.72 Z" fill="#000000" fill-rule="nonzero" fill-opacity="1" /><path clip-path="url(#clip980)" d="M46.9921 1210.21 L76.6679 1210.21 L76.6679 1214.15 L46.9921 1214.15 L46.9921 1210.21 Z" fill="#000000" fill-rule="nonzero" fill-opacity="1" /><path clip-path="url(#clip980)" d="M99.6076 1196.55 L87.8021 1215 L99.6076 1215 L99.6076 1196.55 M98.3807 1192.48 L104.26 1192.48 L104.26 1215 L109.191 1215 L109.191 1218.89 L104.26 1218.89 L104.26 1227.04 L99.6076 1227.04 L99.6076 1218.89 L84.0058 1218.89 L84.0058 1214.38 L98.3807 1192.48 Z" fill="#000000" fill-rule="nonzero" fill-opacity="1" /><path clip-path="url(#clip980)" d="M48.1264 1040.97 L77.8021 1040.97 L77.8021 1044.91 L48.1264 1044.91 L48.1264 1040.97 Z" fill="#000000" fill-rule="nonzero" fill-opacity="1" /><path clip-path="url(#clip980)" d="M102.061 1039.16 Q105.418 1039.88 107.293 1042.15 Q109.191 1044.42 109.191 1047.75 Q109.191 1052.87 105.672 1055.67 Q102.154 1058.47 95.6724 1058.47 Q93.4965 1058.47 91.1817 1058.03 Q88.89 1057.61 86.4364 1056.76 L86.4364 1052.24 Q88.3808 1053.38 90.6956 1053.96 Q93.0104 1054.54 95.5335 1054.54 Q99.9317 1054.54 102.223 1052.8 Q104.538 1051.06 104.538 1047.75 Q104.538 1044.7 102.385 1042.98 Q100.256 1041.25 96.4363 1041.25 L92.4085 1041.25 L92.4085 1037.41 L96.6215 1037.41 Q100.071 1037.41 101.899 1036.04 Q103.728 1034.65 103.728 1032.06 Q103.728 1029.4 101.83 1027.98 Q99.9548 1026.55 96.4363 1026.55 Q94.515 1026.55 92.316 1026.97 Q90.1169 1027.38 87.478 1028.26 L87.478 1024.1 Q90.14 1023.35 92.4548 1022.98 Q94.7928 1022.61 96.853 1022.61 Q102.177 1022.61 105.279 1025.04 Q108.381 1027.45 108.381 1031.57 Q108.381 1034.44 106.737 1036.43 Q105.094 1038.4 102.061 1039.16 Z" fill="#000000" fill-rule="nonzero" fill-opacity="1" /><path clip-path="url(#clip980)" d="M49.0754 871.729 L78.7512 871.729 L78.7512 875.664 L49.0754 875.664 L49.0754 871.729 Z" fill="#000000" fill-rule="nonzero" fill-opacity="1" /><path clip-path="url(#clip980)" d="M92.8715 884.623 L109.191 884.623 L109.191 888.558 L87.2465 888.558 L87.2465 884.623 Q89.9086 881.868 94.4919 877.238 Q99.0983 872.586 100.279 871.243 Q102.524 868.72 103.404 866.984 Q104.307 865.225 104.307 863.535 Q104.307 860.78 102.362 859.044 Q100.441 857.308 97.3391 857.308 Q95.14 857.308 92.6863 858.072 Q90.2558 858.836 87.478 860.387 L87.478 855.665 Q90.3021 854.53 92.7558 853.952 Q95.2095 853.373 97.2465 853.373 Q102.617 853.373 105.811 856.058 Q109.006 858.743 109.006 863.234 Q109.006 865.364 108.196 867.285 Q107.408 869.183 105.302 871.776 Q104.723 872.447 101.621 875.664 Q98.5196 878.859 92.8715 884.623 Z" fill="#000000" fill-rule="nonzero" fill-opacity="1" /><path clip-path="url(#clip980)" d="M48.7051 702.488 L78.3808 702.488 L78.3808 706.423 L48.7051 706.423 L48.7051 702.488 Z" fill="#000000" fill-rule="nonzero" fill-opacity="1" /><path clip-path="url(#clip980)" d="M89.2836 715.382 L96.9224 715.382 L96.9224 689.016 L88.6123 690.683 L88.6123 686.423 L96.8761 684.757 L101.552 684.757 L101.552 715.382 L109.191 715.382 L109.191 719.317 L89.2836 719.317 L89.2836 715.382 Z" fill="#000000" fill-rule="nonzero" fill-opacity="1" /><path clip-path="url(#clip980)" d="M97.2465 518.594 Q93.6354 518.594 91.8067 522.159 Q90.0012 525.701 90.0012 532.83 Q90.0012 539.937 91.8067 543.501 Q93.6354 547.043 97.2465 547.043 Q100.881 547.043 102.686 543.501 Q104.515 539.937 104.515 532.83 Q104.515 525.701 102.686 522.159 Q100.881 518.594 97.2465 518.594 M97.2465 514.89 Q103.057 514.89 106.112 519.497 Q109.191 524.08 109.191 532.83 Q109.191 541.557 106.112 546.163 Q103.057 550.747 97.2465 550.747 Q91.4363 550.747 88.3576 546.163 Q85.3021 541.557 85.3021 532.83 Q85.3021 524.08 88.3576 519.497 Q91.4363 514.89 97.2465 514.89 Z" fill="#000000" fill-rule="nonzero" fill-opacity="1" /><path clip-path="url(#clip980)" d="M89.2836 376.899 L96.9224 376.899 L96.9224 350.534 L88.6123 352.2 L88.6123 347.941 L96.8761 346.274 L101.552 346.274 L101.552 376.899 L109.191 376.899 L109.191 380.834 L89.2836 380.834 L89.2836 376.899 Z" fill="#000000" fill-rule="nonzero" fill-opacity="1" /><polyline clip-path="url(#clip982)" style="stroke:#009af9; stroke-linecap:round; stroke-linejoin:round; stroke-width:4; stroke-opacity:1; fill:none" points="196.688,710.077 209.854,936.467 223.019,1101.06 236.185,1065.72 249.351,955.597 262.517,821.929 275.682,877.633 288.848,991.528 302.014,913.246 315.179,859.783 328.345,839.369 341.511,858.731 354.676,853.321 367.842,855.135 381.008,853.419 394.174,887.611 407.339,873.389 420.505,872.903 433.671,854.975 446.836,832.407 460.002,799.368 473.168,805.782 486.334,781.245 499.499,780.391 512.665,786.705 525.831,816.197 538.996,806.187 552.162,820.123 565.328,797.604 578.494,787.64 591.659,768.913 604.825,782.741 617.991,816.119 631.156,828.65 644.322,822.048 657.488,828.636 670.653,849.858 683.819,858.239 696.985,852.329 710.151,861.296 723.316,867.731 736.482,873.874 749.648,882.803 762.813,882.827 775.979,882.223 789.145,887.932 802.311,907.097 815.476,914.979 828.642,916.492 841.808,917.818 854.973,889.608 868.139,880.991 881.305,905.248 894.471,906.924 907.636,895.053 920.802,901.34 933.968,914.059 947.133,912.082 960.299,906.479 973.465,906.215 986.63,900.772 999.796,910.371 1012.96,905.303 1026.13,898.451 1039.29,894.307 1052.46,889.92 1065.62,890.236 1078.79,897.554 1091.96,905.567 1105.12,900.292 1118.29,899.06 1131.45,889.924 1144.62,892.282 1157.78,892.517 1170.95,885.483 1184.12,881.886 1197.28,879.382 1210.45,885.27 1223.61,883.782 1236.78,891.858 1249.94,895.837 1263.11,902.228 1276.28,905.676 1289.44,914.551 1302.61,919.186 1315.77,928.146 1328.94,928.598 1342.1,936.672 1355.27,930.289 1368.44,923.756 1381.6,926.291 1394.77,920.789 1407.93,922.671 1421.1,914.527 1434.26,925.2 1447.43,920.659 1460.6,922.789 1473.76,927.248 1486.93,931.249 1500.09,928.63 1513.26,927.326 "/>
<polyline clip-path="url(#clip982)" style="stroke:#e26f46; stroke-linecap:round; stroke-linejoin:round; stroke-width:4; stroke-opacity:1; fill:none" points="196.688,709.658 209.854,665.134 223.019,749.342 236.185,796.714 249.351,598.908 262.517,393.227 275.682,452.574 288.848,469.564 302.014,444.469 315.179,491.469 328.345,484.627 341.511,488.898 354.676,501.59 367.842,481.517 381.008,512.5 394.174,520.481 407.339,511.881 420.505,497.128 433.671,494.967 446.836,490.21 460.002,485.565 473.168,480.122 486.334,486.717 499.499,460.904 512.665,451.385 525.831,444.623 538.996,436.107 552.162,432.31 565.328,411.78 578.494,396.288 591.659,392.022 604.825,394.966 617.991,400.733 631.156,379.171 644.322,372.248 657.488,356.399 670.653,356.59 683.819,356.775 696.985,364.116 710.151,378.145 723.316,362.339 736.482,352.862 749.648,356.313 762.813,361.623 775.979,371.049 789.145,360.066 802.311,376.639 815.476,387.13 828.642,387.172 841.808,390.222 854.973,377.083 868.139,377.564 881.305,366.903 894.471,365.467 907.636,370.463 920.802,373.3 933.968,364.56 947.133,371.737 960.299,365.313 973.465,355.219 986.63,348.464 999.796,349.179 1012.96,341.806 1026.13,332.339 1039.29,333.775 1052.46,339.085 1065.62,350.097 1078.79,336.546 1091.96,340.952 1105.12,341.391 1118.29,351.402 1131.45,346.879 1144.62,345.022 1157.78,350.573 1170.95,348.645 1184.12,352.948 1197.28,347.343 1210.45,345.648 1223.61,345.531 1236.78,341.587 1249.94,346.325 1263.11,340.601 1276.28,340.801 1289.44,344.638 1302.61,339.471 1315.77,354.194 1328.94,355.211 1342.1,357.421 1355.27,350.049 1368.44,349.362 1381.6,345.71 1394.77,345.933 1407.93,346.512 1421.1,334.759 1434.26,336.022 1447.43,342.739 1460.6,345.161 1473.76,339.881 1486.93,337.917 1500.09,343.565 1513.26,341.452 "/>
<polyline clip-path="url(#clip982)" style="stroke:#3da44d; stroke-linecap:round; stroke-linejoin:round; stroke-width:4; stroke-opacity:1; fill:none" points="196.688,717.504 209.854,853.542 223.019,930.133 236.185,1094.79 249.351,979.972 262.517,925.093 275.682,830.601 288.848,921.746 302.014,903.034 315.179,843.972 328.345,815.223 341.511,822.096 354.676,855.638 367.842,867.127 381.008,879.243 394.174,887.164 407.339,928.227 420.505,904.883 433.671,919.043 446.836,890.565 460.002,891.3 473.168,888.996 486.334,848.018 499.499,843.529 512.665,878.597 525.831,874.882 538.996,898.171 552.162,916.701 565.328,878.438 578.494,888.925 591.659,907.573 604.825,902.608 617.991,869.987 631.156,894.544 644.322,879.714 657.488,889.495 670.653,863.8 683.819,858.702 696.985,844.597 710.151,844.473 723.316,832.736 736.482,827.867 749.648,812.947 762.813,793.753 775.979,786.192 789.145,777.247 802.311,775.015 815.476,769.821 828.642,773.722 841.808,767.487 854.973,768.792 868.139,760.585 881.305,768.863 894.471,780.596 907.636,783.119 920.802,779.188 933.968,788.793 947.133,788.807 960.299,785.798 973.465,790.645 986.63,799.621 999.796,796.903 1012.96,804.484 1026.13,805.903 1039.29,818.186 1052.46,820.646 1065.62,819.328 1078.79,803.758 1091.96,806.657 1105.12,807.307 1118.29,819.94 1131.45,812.303 1144.62,817.492 1157.78,831.191 1170.95,831.436 1184.12,829.597 1197.28,825.097 1210.45,825.031 1223.61,822.717 1236.78,822.03 1249.94,826.448 1263.11,829.618 1276.28,820.57 1289.44,817.99 1302.61,821.371 1315.77,825.657 1328.94,830.031 1342.1,826.775 1355.27,820.819 1368.44,814.288 1381.6,802.218 1394.77,797.18 1407.93,797.265 1421.1,799.987 1434.26,797.36 1447.43,789.934 1460.6,787.781 1473.76,780.95 1486.93,779.818 1500.09,784.073 1513.26,788.387 "/>
<polyline clip-path="url(#clip982)" style="stroke:#c271d2; stroke-linecap:round; stroke-linejoin:round; stroke-width:4; stroke-opacity:1; fill:none" points="196.688,532.795 209.854,1069.65 223.019,1138.99 236.185,1461.22 249.351,1388.55 262.517,1283.41 275.682,1342.83 288.848,1329.42 302.014,1257.32 315.179,1326.57 328.345,1281.59 341.511,1202.53 354.676,1165.44 367.842,1110.64 381.008,1153.2 394.174,1112.18 407.339,1153.28 420.505,1142.23 433.671,1121.1 446.836,1142.86 460.002,1142.64 473.168,1136.68 486.334,1129.59 499.499,1150.51 512.665,1164.15 525.831,1146.88 538.996,1167.66 552.162,1226.12 565.328,1198.67 578.494,1201.55 591.659,1220 604.825,1221.02 617.991,1197.09 631.156,1181.56 644.322,1149.51 657.488,1137.34 670.653,1149.3 683.819,1153.05 696.985,1142.41 710.151,1146.99 723.316,1142.8 736.482,1136.33 749.648,1130.18 762.813,1138.79 775.979,1136.24 789.145,1134.38 802.311,1122.77 815.476,1125.33 828.642,1143.5 841.808,1150.29 854.973,1146.85 868.139,1150.75 881.305,1160.62 894.471,1152.27 907.636,1160.76 920.802,1152.85 933.968,1161.15 947.133,1156.78 960.299,1155.82 973.465,1148.21 986.63,1146.99 999.796,1172.02 1012.96,1173.81 1026.13,1174.18 1039.29,1181.45 1052.46,1188.64 1065.62,1182.54 1078.79,1173.97 1091.96,1169.41 1105.12,1170.84 1118.29,1173.11 1131.45,1183.76 1144.62,1173.61 1157.78,1188.53 1170.95,1187.57 1184.12,1195.07 1197.28,1189.67 1210.45,1201.53 1223.61,1200.22 1236.78,1208.86 1249.94,1206.98 1263.11,1211.04 1276.28,1210.93 1289.44,1209.74 1302.61,1218.15 1315.77,1212.53 1328.94,1209.35 1342.1,1213.81 1355.27,1209.99 1368.44,1208.23 1381.6,1215.17 1394.77,1217.71 1407.93,1213.63 1421.1,1219.75 1434.26,1213.49 1447.43,1208.61 1460.6,1218.57 1473.76,1221.66 1486.93,1225.61 1500.09,1231.76 1513.26,1222.67 "/>
<path clip-path="url(#clip980)" d="M203.71 1455.2 L551.622 1455.2 L551.622 1196 L203.71 1196  Z" fill="#ffffff" fill-rule="evenodd" fill-opacity="1"/>
<polyline clip-path="url(#clip980)" style="stroke:#000000; stroke-linecap:round; stroke-linejoin:round; stroke-width:4; stroke-opacity:1; fill:none" points="203.71,1455.2 551.622,1455.2 551.622,1196 203.71,1196 203.71,1455.2 "/>
<polyline clip-path="url(#clip980)" style="stroke:#009af9; stroke-linecap:round; stroke-linejoin:round; stroke-width:4; stroke-opacity:1; fill:none" points="219.216,1247.84 312.254,1247.84 "/>
<path clip-path="url(#clip980)" d="M350.005 1231.69 L350.005 1236.26 Q347.343 1234.98 344.982 1234.36 Q342.621 1233.73 340.422 1233.73 Q336.602 1233.73 334.519 1235.21 Q332.459 1236.69 332.459 1239.43 Q332.459 1241.72 333.825 1242.9 Q335.214 1244.06 339.056 1244.77 L341.88 1245.35 Q347.112 1246.35 349.589 1248.87 Q352.089 1251.37 352.089 1255.58 Q352.089 1260.61 348.709 1263.2 Q345.352 1265.79 338.848 1265.79 Q336.394 1265.79 333.616 1265.24 Q330.862 1264.68 327.899 1263.59 L327.899 1258.78 Q330.746 1260.38 333.477 1261.19 Q336.209 1262 338.848 1262 Q342.852 1262 345.028 1260.42 Q347.204 1258.85 347.204 1255.93 Q347.204 1253.38 345.63 1251.95 Q344.079 1250.51 340.514 1249.8 L337.667 1249.24 Q332.436 1248.2 330.098 1245.98 Q327.76 1243.76 327.76 1239.8 Q327.76 1235.21 330.978 1232.57 Q334.218 1229.94 339.889 1229.94 Q342.32 1229.94 344.843 1230.38 Q347.366 1230.82 350.005 1231.69 Z" fill="#000000" fill-rule="nonzero" fill-opacity="1" /><path clip-path="url(#clip980)" d="M363.408 1231.83 L363.408 1239.19 L372.181 1239.19 L372.181 1242.51 L363.408 1242.51 L363.408 1256.58 Q363.408 1259.75 364.264 1260.65 Q365.144 1261.56 367.806 1261.56 L372.181 1261.56 L372.181 1265.12 L367.806 1265.12 Q362.875 1265.12 361 1263.29 Q359.125 1261.44 359.125 1256.58 L359.125 1242.51 L356.001 1242.51 L356.001 1239.19 L359.125 1239.19 L359.125 1231.83 L363.408 1231.83 Z" fill="#000000" fill-rule="nonzero" fill-opacity="1" /><path clip-path="url(#clip980)" d="M377.343 1254.89 L377.343 1239.19 L381.602 1239.19 L381.602 1254.73 Q381.602 1258.41 383.037 1260.26 Q384.473 1262.09 387.343 1262.09 Q390.792 1262.09 392.783 1259.89 Q394.797 1257.69 394.797 1253.89 L394.797 1239.19 L399.056 1239.19 L399.056 1265.12 L394.797 1265.12 L394.797 1261.14 Q393.246 1263.5 391.186 1264.66 Q389.148 1265.79 386.44 1265.79 Q381.973 1265.79 379.658 1263.01 Q377.343 1260.24 377.343 1254.89 M388.061 1238.57 L388.061 1238.57 Z" fill="#000000" fill-rule="nonzero" fill-opacity="1" /><path clip-path="url(#clip980)" d="M424.889 1243.13 L424.889 1229.1 L429.148 1229.1 L429.148 1265.12 L424.889 1265.12 L424.889 1261.23 Q423.546 1263.55 421.486 1264.68 Q419.449 1265.79 416.579 1265.79 Q411.88 1265.79 408.917 1262.04 Q405.977 1258.29 405.977 1252.18 Q405.977 1246.07 408.917 1242.32 Q411.88 1238.57 416.579 1238.57 Q419.449 1238.57 421.486 1239.7 Q423.546 1240.82 424.889 1243.13 M410.375 1252.18 Q410.375 1256.88 412.297 1259.57 Q414.241 1262.23 417.621 1262.23 Q421 1262.23 422.945 1259.57 Q424.889 1256.88 424.889 1252.18 Q424.889 1247.48 422.945 1244.82 Q421 1242.13 417.621 1242.13 Q414.241 1242.13 412.297 1244.82 Q410.375 1247.48 410.375 1252.18 Z" fill="#000000" fill-rule="nonzero" fill-opacity="1" /><path clip-path="url(#clip980)" d="M460.097 1251.09 L460.097 1253.18 L440.514 1253.18 Q440.792 1257.57 443.153 1259.89 Q445.537 1262.18 449.773 1262.18 Q452.227 1262.18 454.519 1261.58 Q456.833 1260.98 459.102 1259.77 L459.102 1263.8 Q456.81 1264.77 454.403 1265.28 Q451.995 1265.79 449.519 1265.79 Q443.315 1265.79 439.681 1262.18 Q436.07 1258.57 436.07 1252.41 Q436.07 1246.05 439.495 1242.32 Q442.944 1238.57 448.778 1238.57 Q454.009 1238.57 457.042 1241.95 Q460.097 1245.31 460.097 1251.09 M455.838 1249.84 Q455.792 1246.35 453.87 1244.26 Q451.972 1242.18 448.824 1242.18 Q445.259 1242.18 443.107 1244.19 Q440.977 1246.21 440.653 1249.87 L455.838 1249.84 Z" fill="#000000" fill-rule="nonzero" fill-opacity="1" /><path clip-path="url(#clip980)" d="M488.639 1249.47 L488.639 1265.12 L484.379 1265.12 L484.379 1249.61 Q484.379 1245.93 482.944 1244.1 Q481.509 1242.27 478.639 1242.27 Q475.19 1242.27 473.199 1244.47 Q471.208 1246.67 471.208 1250.47 L471.208 1265.12 L466.926 1265.12 L466.926 1239.19 L471.208 1239.19 L471.208 1243.22 Q472.736 1240.88 474.796 1239.73 Q476.879 1238.57 479.588 1238.57 Q484.055 1238.57 486.347 1241.35 Q488.639 1244.1 488.639 1249.47 Z" fill="#000000" fill-rule="nonzero" fill-opacity="1" /><path clip-path="url(#clip980)" d="M501.347 1231.83 L501.347 1239.19 L510.12 1239.19 L510.12 1242.51 L501.347 1242.51 L501.347 1256.58 Q501.347 1259.75 502.203 1260.65 Q503.083 1261.56 505.745 1261.56 L510.12 1261.56 L510.12 1265.12 L505.745 1265.12 Q500.815 1265.12 498.94 1263.29 Q497.065 1261.44 497.065 1256.58 L497.065 1242.51 L493.94 1242.51 L493.94 1239.19 L497.065 1239.19 L497.065 1231.83 L501.347 1231.83 Z" fill="#000000" fill-rule="nonzero" fill-opacity="1" /><polyline clip-path="url(#clip980)" style="stroke:#e26f46; stroke-linecap:round; stroke-linejoin:round; stroke-width:4; stroke-opacity:1; fill:none" points="219.216,1299.68 312.254,1299.68 "/>
<path clip-path="url(#clip980)" d="M332.436 1300.46 L332.436 1313.12 L339.936 1313.12 Q343.709 1313.12 345.514 1311.57 Q347.343 1309.99 347.343 1306.78 Q347.343 1303.53 345.514 1302.01 Q343.709 1300.46 339.936 1300.46 L332.436 1300.46 M332.436 1286.24 L332.436 1296.66 L339.357 1296.66 Q342.783 1296.66 344.45 1295.39 Q346.139 1294.09 346.139 1291.45 Q346.139 1288.84 344.45 1287.54 Q342.783 1286.24 339.357 1286.24 L332.436 1286.24 M327.76 1282.4 L339.704 1282.4 Q345.052 1282.4 347.945 1284.62 Q350.839 1286.85 350.839 1290.94 Q350.839 1294.11 349.357 1295.99 Q347.876 1297.86 345.005 1298.33 Q348.454 1299.07 350.352 1301.43 Q352.274 1303.77 352.274 1307.28 Q352.274 1311.91 349.126 1314.44 Q345.977 1316.96 340.167 1316.96 L327.76 1316.96 L327.76 1282.4 Z" fill="#000000" fill-rule="nonzero" fill-opacity="1" /><path clip-path="url(#clip980)" d="M371.88 1303.93 Q366.718 1303.93 364.727 1305.11 Q362.737 1306.29 362.737 1309.14 Q362.737 1311.41 364.218 1312.75 Q365.723 1314.07 368.292 1314.07 Q371.834 1314.07 373.963 1311.57 Q376.116 1309.04 376.116 1304.88 L376.116 1303.93 L371.88 1303.93 M380.375 1302.17 L380.375 1316.96 L376.116 1316.96 L376.116 1313.03 Q374.658 1315.39 372.482 1316.52 Q370.306 1317.63 367.158 1317.63 Q363.176 1317.63 360.815 1315.41 Q358.477 1313.16 358.477 1309.41 Q358.477 1305.04 361.394 1302.82 Q364.334 1300.6 370.144 1300.6 L376.116 1300.6 L376.116 1300.18 Q376.116 1297.24 374.172 1295.64 Q372.25 1294.02 368.755 1294.02 Q366.533 1294.02 364.426 1294.55 Q362.32 1295.09 360.375 1296.15 L360.375 1292.22 Q362.713 1291.31 364.913 1290.87 Q367.112 1290.41 369.195 1290.41 Q374.82 1290.41 377.598 1293.33 Q380.375 1296.24 380.375 1302.17 Z" fill="#000000" fill-rule="nonzero" fill-opacity="1" /><path clip-path="url(#clip980)" d="M389.148 1280.94 L393.408 1280.94 L393.408 1316.96 L389.148 1316.96 L389.148 1280.94 Z" fill="#000000" fill-rule="nonzero" fill-opacity="1" /><path clip-path="url(#clip980)" d="M414.102 1303.93 Q408.94 1303.93 406.949 1305.11 Q404.959 1306.29 404.959 1309.14 Q404.959 1311.41 406.44 1312.75 Q407.945 1314.07 410.514 1314.07 Q414.056 1314.07 416.185 1311.57 Q418.338 1309.04 418.338 1304.88 L418.338 1303.93 L414.102 1303.93 M422.597 1302.17 L422.597 1316.96 L418.338 1316.96 L418.338 1313.03 Q416.88 1315.39 414.704 1316.52 Q412.528 1317.63 409.38 1317.63 Q405.398 1317.63 403.037 1315.41 Q400.699 1313.16 400.699 1309.41 Q400.699 1305.04 403.616 1302.82 Q406.556 1300.6 412.366 1300.6 L418.338 1300.6 L418.338 1300.18 Q418.338 1297.24 416.394 1295.64 Q414.472 1294.02 410.977 1294.02 Q408.755 1294.02 406.648 1294.55 Q404.542 1295.09 402.597 1296.15 L402.597 1292.22 Q404.935 1291.31 407.135 1290.87 Q409.334 1290.41 411.417 1290.41 Q417.042 1290.41 419.82 1293.33 Q422.597 1296.24 422.597 1302.17 Z" fill="#000000" fill-rule="nonzero" fill-opacity="1" /><path clip-path="url(#clip980)" d="M452.921 1301.31 L452.921 1316.96 L448.662 1316.96 L448.662 1301.45 Q448.662 1297.77 447.227 1295.94 Q445.792 1294.11 442.921 1294.11 Q439.472 1294.11 437.482 1296.31 Q435.491 1298.51 435.491 1302.31 L435.491 1316.96 L431.208 1316.96 L431.208 1291.03 L435.491 1291.03 L435.491 1295.06 Q437.019 1292.72 439.079 1291.57 Q441.162 1290.41 443.87 1290.41 Q448.338 1290.41 450.63 1293.19 Q452.921 1295.94 452.921 1301.31 Z" fill="#000000" fill-rule="nonzero" fill-opacity="1" /><path clip-path="url(#clip980)" d="M480.074 1292.03 L480.074 1296.01 Q478.268 1295.02 476.44 1294.53 Q474.634 1294.02 472.782 1294.02 Q468.639 1294.02 466.347 1296.66 Q464.055 1299.28 464.055 1304.02 Q464.055 1308.77 466.347 1311.41 Q468.639 1314.02 472.782 1314.02 Q474.634 1314.02 476.44 1313.53 Q478.268 1313.03 480.074 1312.03 L480.074 1315.97 Q478.292 1316.8 476.37 1317.22 Q474.472 1317.63 472.319 1317.63 Q466.463 1317.63 463.014 1313.95 Q459.565 1310.27 459.565 1304.02 Q459.565 1297.68 463.037 1294.04 Q466.532 1290.41 472.597 1290.41 Q474.565 1290.41 476.44 1290.83 Q478.315 1291.22 480.074 1292.03 Z" fill="#000000" fill-rule="nonzero" fill-opacity="1" /><path clip-path="url(#clip980)" d="M509.657 1302.93 L509.657 1305.02 L490.074 1305.02 Q490.352 1309.41 492.713 1311.73 Q495.097 1314.02 499.333 1314.02 Q501.787 1314.02 504.078 1313.42 Q506.393 1312.82 508.662 1311.61 L508.662 1315.64 Q506.37 1316.61 503.963 1317.12 Q501.555 1317.63 499.078 1317.63 Q492.875 1317.63 489.241 1314.02 Q485.629 1310.41 485.629 1304.25 Q485.629 1297.89 489.055 1294.16 Q492.504 1290.41 498.338 1290.41 Q503.569 1290.41 506.602 1293.79 Q509.657 1297.15 509.657 1302.93 M505.398 1301.68 Q505.352 1298.19 503.43 1296.1 Q501.532 1294.02 498.384 1294.02 Q494.819 1294.02 492.666 1296.03 Q490.537 1298.05 490.213 1301.71 L505.398 1301.68 Z" fill="#000000" fill-rule="nonzero" fill-opacity="1" /><polyline clip-path="url(#clip980)" style="stroke:#3da44d; stroke-linecap:round; stroke-linejoin:round; stroke-width:4; stroke-opacity:1; fill:none" points="219.216,1351.52 312.254,1351.52 "/>
<path clip-path="url(#clip980)" d="M327.76 1334.24 L332.436 1334.24 L332.436 1368.8 L327.76 1368.8 L327.76 1334.24 Z" fill="#000000" fill-rule="nonzero" fill-opacity="1" /><path clip-path="url(#clip980)" d="M363.107 1353.15 L363.107 1368.8 L358.848 1368.8 L358.848 1353.29 Q358.848 1349.61 357.413 1347.78 Q355.977 1345.95 353.107 1345.95 Q349.658 1345.95 347.667 1348.15 Q345.676 1350.35 345.676 1354.15 L345.676 1368.8 L341.394 1368.8 L341.394 1342.87 L345.676 1342.87 L345.676 1346.9 Q347.204 1344.56 349.264 1343.41 Q351.348 1342.25 354.056 1342.25 Q358.524 1342.25 360.815 1345.03 Q363.107 1347.78 363.107 1353.15 Z" fill="#000000" fill-rule="nonzero" fill-opacity="1" /><path clip-path="url(#clip980)" d="M390.26 1343.87 L390.26 1347.85 Q388.454 1346.86 386.625 1346.37 Q384.82 1345.86 382.968 1345.86 Q378.824 1345.86 376.533 1348.5 Q374.241 1351.12 374.241 1355.86 Q374.241 1360.61 376.533 1363.25 Q378.824 1365.86 382.968 1365.86 Q384.82 1365.86 386.625 1365.37 Q388.454 1364.87 390.26 1363.87 L390.26 1367.81 Q388.477 1368.64 386.556 1369.06 Q384.658 1369.47 382.505 1369.47 Q376.649 1369.47 373.199 1365.79 Q369.75 1362.11 369.75 1355.86 Q369.75 1349.52 373.223 1345.88 Q376.718 1342.25 382.783 1342.25 Q384.75 1342.25 386.625 1342.67 Q388.5 1343.06 390.26 1343.87 Z" fill="#000000" fill-rule="nonzero" fill-opacity="1" /><path clip-path="url(#clip980)" d="M407.713 1345.86 Q404.287 1345.86 402.297 1348.55 Q400.306 1351.21 400.306 1355.86 Q400.306 1360.51 402.273 1363.2 Q404.264 1365.86 407.713 1365.86 Q411.116 1365.86 413.107 1363.18 Q415.097 1360.49 415.097 1355.86 Q415.097 1351.25 413.107 1348.57 Q411.116 1345.86 407.713 1345.86 M407.713 1342.25 Q413.269 1342.25 416.44 1345.86 Q419.611 1349.47 419.611 1355.86 Q419.611 1362.23 416.44 1365.86 Q413.269 1369.47 407.713 1369.47 Q402.135 1369.47 398.963 1365.86 Q395.815 1362.23 395.815 1355.86 Q395.815 1349.47 398.963 1345.86 Q402.135 1342.25 407.713 1342.25 Z" fill="#000000" fill-rule="nonzero" fill-opacity="1" /><path clip-path="url(#clip980)" d="M446.857 1347.85 Q448.454 1344.98 450.676 1343.62 Q452.898 1342.25 455.907 1342.25 Q459.958 1342.25 462.157 1345.1 Q464.356 1347.92 464.356 1353.15 L464.356 1368.8 L460.074 1368.8 L460.074 1353.29 Q460.074 1349.56 458.755 1347.76 Q457.435 1345.95 454.727 1345.95 Q451.417 1345.95 449.495 1348.15 Q447.574 1350.35 447.574 1354.15 L447.574 1368.8 L443.292 1368.8 L443.292 1353.29 Q443.292 1349.54 441.972 1347.76 Q440.653 1345.95 437.898 1345.95 Q434.634 1345.95 432.713 1348.18 Q430.792 1350.37 430.792 1354.15 L430.792 1368.8 L426.509 1368.8 L426.509 1342.87 L430.792 1342.87 L430.792 1346.9 Q432.25 1344.52 434.287 1343.38 Q436.324 1342.25 439.125 1342.25 Q441.949 1342.25 443.917 1343.69 Q445.907 1345.12 446.857 1347.85 Z" fill="#000000" fill-rule="nonzero" fill-opacity="1" /><path clip-path="url(#clip980)" d="M495.028 1354.77 L495.028 1356.86 L475.444 1356.86 Q475.722 1361.25 478.083 1363.57 Q480.467 1365.86 484.704 1365.86 Q487.157 1365.86 489.449 1365.26 Q491.764 1364.66 494.032 1363.45 L494.032 1367.48 Q491.741 1368.45 489.333 1368.96 Q486.926 1369.47 484.449 1369.47 Q478.245 1369.47 474.611 1365.86 Q471 1362.25 471 1356.09 Q471 1349.73 474.426 1346 Q477.875 1342.25 483.708 1342.25 Q488.94 1342.25 491.972 1345.63 Q495.028 1348.99 495.028 1354.77 M490.768 1353.52 Q490.722 1350.03 488.801 1347.94 Q486.903 1345.86 483.754 1345.86 Q480.19 1345.86 478.037 1347.87 Q475.907 1349.89 475.583 1353.55 L490.768 1353.52 Z" fill="#000000" fill-rule="nonzero" fill-opacity="1" /><polyline clip-path="url(#clip980)" style="stroke:#c271d2; stroke-linecap:round; stroke-linejoin:round; stroke-width:4; stroke-opacity:1; fill:none" points="219.216,1403.36 312.254,1403.36 "/>
<path clip-path="url(#clip980)" d="M327.76 1386.08 L332.436 1386.08 L332.436 1420.64 L327.76 1420.64 L327.76 1386.08 Z" fill="#000000" fill-rule="nonzero" fill-opacity="1" /><path clip-path="url(#clip980)" d="M363.107 1404.99 L363.107 1420.64 L358.848 1420.64 L358.848 1405.13 Q358.848 1401.45 357.413 1399.62 Q355.977 1397.79 353.107 1397.79 Q349.658 1397.79 347.667 1399.99 Q345.676 1402.19 345.676 1405.99 L345.676 1420.64 L341.394 1420.64 L341.394 1394.71 L345.676 1394.71 L345.676 1398.74 Q347.204 1396.4 349.264 1395.25 Q351.348 1394.09 354.056 1394.09 Q358.524 1394.09 360.815 1396.87 Q363.107 1399.62 363.107 1404.99 Z" fill="#000000" fill-rule="nonzero" fill-opacity="1" /><path clip-path="url(#clip980)" d="M375.815 1387.35 L375.815 1394.71 L384.588 1394.71 L384.588 1398.03 L375.815 1398.03 L375.815 1412.1 Q375.815 1415.27 376.672 1416.17 Q377.551 1417.08 380.213 1417.08 L384.588 1417.08 L384.588 1420.64 L380.213 1420.64 Q375.283 1420.64 373.408 1418.81 Q371.533 1416.96 371.533 1412.1 L371.533 1398.03 L368.408 1398.03 L368.408 1394.71 L371.533 1394.71 L371.533 1387.35 L375.815 1387.35 Z" fill="#000000" fill-rule="nonzero" fill-opacity="1" /><path clip-path="url(#clip980)" d="M412.366 1406.61 L412.366 1408.7 L392.783 1408.7 Q393.061 1413.09 395.422 1415.41 Q397.806 1417.7 402.042 1417.7 Q404.496 1417.7 406.787 1417.1 Q409.102 1416.5 411.371 1415.29 L411.371 1419.32 Q409.079 1420.29 406.672 1420.8 Q404.264 1421.31 401.787 1421.31 Q395.584 1421.31 391.949 1417.7 Q388.338 1414.09 388.338 1407.93 Q388.338 1401.57 391.764 1397.84 Q395.213 1394.09 401.047 1394.09 Q406.278 1394.09 409.31 1397.47 Q412.366 1400.83 412.366 1406.61 M408.107 1405.36 Q408.06 1401.87 406.139 1399.78 Q404.241 1397.7 401.093 1397.7 Q397.528 1397.7 395.375 1399.71 Q393.246 1401.73 392.922 1405.39 L408.107 1405.36 Z" fill="#000000" fill-rule="nonzero" fill-opacity="1" /><path clip-path="url(#clip980)" d="M434.38 1398.7 Q433.662 1398.28 432.806 1398.09 Q431.972 1397.89 430.954 1397.89 Q427.343 1397.89 425.398 1400.25 Q423.477 1402.59 423.477 1406.98 L423.477 1420.64 L419.195 1420.64 L419.195 1394.71 L423.477 1394.71 L423.477 1398.74 Q424.82 1396.38 426.972 1395.25 Q429.125 1394.09 432.204 1394.09 Q432.644 1394.09 433.176 1394.16 Q433.708 1394.21 434.357 1394.32 L434.38 1398.7 Z" fill="#000000" fill-rule="nonzero" fill-opacity="1" /><path clip-path="url(#clip980)" d="M456.463 1395.71 L456.463 1399.69 Q454.657 1398.7 452.829 1398.21 Q451.023 1397.7 449.171 1397.7 Q445.028 1397.7 442.736 1400.34 Q440.445 1402.96 440.445 1407.7 Q440.445 1412.45 442.736 1415.09 Q445.028 1417.7 449.171 1417.7 Q451.023 1417.7 452.829 1417.21 Q454.657 1416.71 456.463 1415.71 L456.463 1419.65 Q454.681 1420.48 452.759 1420.9 Q450.861 1421.31 448.708 1421.31 Q442.852 1421.31 439.403 1417.63 Q435.954 1413.95 435.954 1407.7 Q435.954 1401.36 439.426 1397.72 Q442.921 1394.09 448.986 1394.09 Q450.954 1394.09 452.829 1394.51 Q454.704 1394.9 456.463 1395.71 Z" fill="#000000" fill-rule="nonzero" fill-opacity="1" /><path clip-path="url(#clip980)" d="M486.046 1406.61 L486.046 1408.7 L466.463 1408.7 Q466.741 1413.09 469.102 1415.41 Q471.486 1417.7 475.722 1417.7 Q478.176 1417.7 480.467 1417.1 Q482.782 1416.5 485.051 1415.29 L485.051 1419.32 Q482.759 1420.29 480.352 1420.8 Q477.944 1421.31 475.467 1421.31 Q469.264 1421.31 465.63 1417.7 Q462.018 1414.09 462.018 1407.93 Q462.018 1401.57 465.444 1397.84 Q468.893 1394.09 474.727 1394.09 Q479.958 1394.09 482.991 1397.47 Q486.046 1400.83 486.046 1406.61 M481.787 1405.36 Q481.741 1401.87 479.819 1399.78 Q477.921 1397.7 474.773 1397.7 Q471.208 1397.7 469.055 1399.71 Q466.926 1401.73 466.602 1405.39 L481.787 1405.36 Z" fill="#000000" fill-rule="nonzero" fill-opacity="1" /><path clip-path="url(#clip980)" d="M497.157 1416.75 L497.157 1430.5 L492.875 1430.5 L492.875 1394.71 L497.157 1394.71 L497.157 1398.65 Q498.5 1396.34 500.537 1395.22 Q502.597 1394.09 505.444 1394.09 Q510.166 1394.09 513.106 1397.84 Q516.069 1401.59 516.069 1407.7 Q516.069 1413.81 513.106 1417.56 Q510.166 1421.31 505.444 1421.31 Q502.597 1421.31 500.537 1420.2 Q498.5 1419.07 497.157 1416.75 M511.648 1407.7 Q511.648 1403 509.703 1400.34 Q507.782 1397.65 504.402 1397.65 Q501.023 1397.65 499.078 1400.34 Q497.157 1403 497.157 1407.7 Q497.157 1412.4 499.078 1415.09 Q501.023 1417.75 504.402 1417.75 Q507.782 1417.75 509.703 1415.09 Q511.648 1412.4 511.648 1407.7 Z" fill="#000000" fill-rule="nonzero" fill-opacity="1" /><path clip-path="url(#clip980)" d="M527.342 1387.35 L527.342 1394.71 L536.115 1394.71 L536.115 1398.03 L527.342 1398.03 L527.342 1412.1 Q527.342 1415.27 528.199 1416.17 Q529.078 1417.08 531.74 1417.08 L536.115 1417.08 L536.115 1420.64 L531.74 1420.64 Q526.81 1420.64 524.935 1418.81 Q523.06 1416.96 523.06 1412.1 L523.06 1398.03 L519.935 1398.03 L519.935 1394.71 L523.06 1394.71 L523.06 1387.35 L527.342 1387.35 Z" fill="#000000" fill-rule="nonzero" fill-opacity="1" /><path clip-path="url(#clip980)" d="M157.191 162.064 L1552.76 162.064 L1552.76 99.0841 L157.191 99.0841  Z" fill="#ffffff" fill-rule="evenodd" fill-opacity="1"/>
<defs>
  <clipPath id="clip983">
    <rect x="157" y="99" width="1397" height="64"/>
  </clipPath>
</defs>
<path clip-path="url(#clip980)" d="M775.645 16.0925 L775.645 25.2128 Q770.321 22.6665 765.599 21.4166 Q760.877 20.1666 756.479 20.1666 Q748.84 20.1666 744.673 23.1295 Q740.553 26.0925 740.553 31.5554 Q740.553 36.1387 743.284 38.4998 Q746.062 40.8146 753.747 42.2498 L759.395 43.4072 Q769.858 45.3979 774.812 50.4442 Q779.812 55.4441 779.812 63.87 Q779.812 73.9163 773.053 79.1014 Q766.34 84.2866 753.33 84.2866 Q748.423 84.2866 742.868 83.1755 Q737.358 82.0644 731.432 79.8885 L731.432 70.2589 Q737.127 73.4533 742.59 75.0737 Q748.053 76.694 753.33 76.694 Q761.34 76.694 765.691 73.5459 Q770.043 70.3978 770.043 64.5645 Q770.043 59.4719 766.895 56.6015 Q763.793 53.7312 756.664 52.296 L750.969 51.1849 Q740.506 49.1016 735.831 44.6572 Q731.155 40.2127 731.155 32.2961 Q731.155 23.1295 737.59 17.8518 Q744.071 12.574 755.414 12.574 Q760.275 12.574 765.321 13.4536 Q770.367 14.3333 775.645 16.0925 Z" fill="#000000" fill-rule="nonzero" fill-opacity="1" /><path clip-path="url(#clip980)" d="M841.524 73.0829 L841.524 54.5182 L826.247 54.5182 L826.247 46.8331 L850.784 46.8331 L850.784 76.5088 Q845.367 80.3514 838.839 82.3422 Q832.311 84.2866 824.904 84.2866 Q808.7 84.2866 799.534 74.8422 Q790.414 65.3515 790.414 48.4534 Q790.414 31.5091 799.534 22.0647 Q808.7 12.574 824.904 12.574 Q831.663 12.574 837.728 14.2407 Q843.839 15.9073 848.978 19.148 L848.978 29.1017 Q843.793 24.7036 837.96 22.4814 Q832.126 20.2592 825.691 20.2592 Q813.006 20.2592 806.617 27.3424 Q800.275 34.4257 800.275 48.4534 Q800.275 62.4349 806.617 69.5181 Q813.006 76.6014 825.691 76.6014 Q830.645 76.6014 834.534 75.7681 Q838.423 74.8885 841.524 73.0829 Z" fill="#000000" fill-rule="nonzero" fill-opacity="1" /><path clip-path="url(#clip980)" d="M867.867 13.824 L877.219 13.824 L877.219 75.0737 L910.876 75.0737 L910.876 82.944 L867.867 82.944 L867.867 13.824 Z" fill="#000000" fill-rule="nonzero" fill-opacity="1" /><path clip-path="url(#clip980)" d="M930.042 21.5091 L930.042 75.2589 L941.339 75.2589 Q955.644 75.2589 962.264 68.7774 Q968.931 62.296 968.931 48.3146 Q968.931 34.4257 962.264 27.9906 Q955.644 21.5091 941.339 21.5091 L930.042 21.5091 M920.691 13.824 L939.903 13.824 Q959.996 13.824 969.394 22.2036 Q978.792 30.5369 978.792 48.3146 Q978.792 66.1848 969.348 74.5644 Q959.903 82.944 939.903 82.944 L920.691 82.944 L920.691 13.824 Z" fill="#000000" fill-rule="nonzero" fill-opacity="1" /><path clip-path="url(#clip980)" d="M1757.19 1495.09 L3152.76 1495.09 L3152.76 298.472 L1757.19 298.472  Z" fill="#ffffff" fill-rule="evenodd" fill-opacity="1"/>
<defs>
  <clipPath id="clip984">
    <rect x="1757" y="298" width="1397" height="1198"/>
  </clipPath>
</defs>
<polyline clip-path="url(#clip984)" style="stroke:#000000; stroke-linecap:round; stroke-linejoin:round; stroke-width:2; stroke-opacity:0.1; fill:none" points="1783.52,1495.09 1783.52,298.472 "/>
<polyline clip-path="url(#clip984)" style="stroke:#000000; stroke-linecap:round; stroke-linejoin:round; stroke-width:2; stroke-opacity:0.1; fill:none" points="2112.66,1495.09 2112.66,298.472 "/>
<polyline clip-path="url(#clip984)" style="stroke:#000000; stroke-linecap:round; stroke-linejoin:round; stroke-width:2; stroke-opacity:0.1; fill:none" points="2441.81,1495.09 2441.81,298.472 "/>
<polyline clip-path="url(#clip984)" style="stroke:#000000; stroke-linecap:round; stroke-linejoin:round; stroke-width:2; stroke-opacity:0.1; fill:none" points="2770.95,1495.09 2770.95,298.472 "/>
<polyline clip-path="url(#clip984)" style="stroke:#000000; stroke-linecap:round; stroke-linejoin:round; stroke-width:2; stroke-opacity:0.1; fill:none" points="3100.09,1495.09 3100.09,298.472 "/>
<polyline clip-path="url(#clip984)" style="stroke:#000000; stroke-linecap:round; stroke-linejoin:round; stroke-width:2; stroke-opacity:0.1; fill:none" points="1757.19,1445.38 3152.76,1445.38 "/>
<polyline clip-path="url(#clip984)" style="stroke:#000000; stroke-linecap:round; stroke-linejoin:round; stroke-width:2; stroke-opacity:0.1; fill:none" points="1757.19,1193.96 3152.76,1193.96 "/>
<polyline clip-path="url(#clip984)" style="stroke:#000000; stroke-linecap:round; stroke-linejoin:round; stroke-width:2; stroke-opacity:0.1; fill:none" points="1757.19,942.541 3152.76,942.541 "/>
<polyline clip-path="url(#clip984)" style="stroke:#000000; stroke-linecap:round; stroke-linejoin:round; stroke-width:2; stroke-opacity:0.1; fill:none" points="1757.19,691.122 3152.76,691.122 "/>
<polyline clip-path="url(#clip984)" style="stroke:#000000; stroke-linecap:round; stroke-linejoin:round; stroke-width:2; stroke-opacity:0.1; fill:none" points="1757.19,439.703 3152.76,439.703 "/>
<polyline clip-path="url(#clip980)" style="stroke:#000000; stroke-linecap:round; stroke-linejoin:round; stroke-width:4; stroke-opacity:1; fill:none" points="1757.19,1495.09 3152.76,1495.09 "/>
<polyline clip-path="url(#clip980)" style="stroke:#000000; stroke-linecap:round; stroke-linejoin:round; stroke-width:4; stroke-opacity:1; fill:none" points="1783.52,1495.09 1783.52,1476.19 "/>
<polyline clip-path="url(#clip980)" style="stroke:#000000; stroke-linecap:round; stroke-linejoin:round; stroke-width:4; stroke-opacity:1; fill:none" points="2112.66,1495.09 2112.66,1476.19 "/>
<polyline clip-path="url(#clip980)" style="stroke:#000000; stroke-linecap:round; stroke-linejoin:round; stroke-width:4; stroke-opacity:1; fill:none" points="2441.81,1495.09 2441.81,1476.19 "/>
<polyline clip-path="url(#clip980)" style="stroke:#000000; stroke-linecap:round; stroke-linejoin:round; stroke-width:4; stroke-opacity:1; fill:none" points="2770.95,1495.09 2770.95,1476.19 "/>
<polyline clip-path="url(#clip980)" style="stroke:#000000; stroke-linecap:round; stroke-linejoin:round; stroke-width:4; stroke-opacity:1; fill:none" points="3100.09,1495.09 3100.09,1476.19 "/>
<path clip-path="url(#clip980)" d="M1783.52 1532.41 Q1779.91 1532.41 1778.08 1535.97 Q1776.28 1539.51 1776.28 1546.64 Q1776.28 1553.75 1778.08 1557.31 Q1779.91 1560.86 1783.52 1560.86 Q1787.16 1560.86 1788.96 1557.31 Q1790.79 1553.75 1790.79 1546.64 Q1790.79 1539.51 1788.96 1535.97 Q1787.16 1532.41 1783.52 1532.41 M1783.52 1528.7 Q1789.33 1528.7 1792.39 1533.31 Q1795.47 1537.89 1795.47 1546.64 Q1795.47 1555.37 1792.39 1559.98 Q1789.33 1564.56 1783.52 1564.56 Q1777.71 1564.56 1774.63 1559.98 Q1771.58 1555.37 1771.58 1546.64 Q1771.58 1537.89 1774.63 1533.31 Q1777.71 1528.7 1783.52 1528.7 Z" fill="#000000" fill-rule="nonzero" fill-opacity="1" /><path clip-path="url(#clip980)" d="M2091.94 1559.95 L2108.26 1559.95 L2108.26 1563.89 L2086.31 1563.89 L2086.31 1559.95 Q2088.97 1557.2 2093.56 1552.57 Q2098.16 1547.92 2099.34 1546.57 Q2101.59 1544.05 2102.47 1542.31 Q2103.37 1540.55 2103.37 1538.86 Q2103.37 1536.11 2101.43 1534.37 Q2099.51 1532.64 2096.4 1532.64 Q2094.2 1532.64 2091.75 1533.4 Q2089.32 1534.17 2086.54 1535.72 L2086.54 1530.99 Q2089.37 1529.86 2091.82 1529.28 Q2094.27 1528.7 2096.31 1528.7 Q2101.68 1528.7 2104.88 1531.39 Q2108.07 1534.07 2108.07 1538.56 Q2108.07 1540.69 2107.26 1542.61 Q2106.47 1544.51 2104.37 1547.11 Q2103.79 1547.78 2100.69 1550.99 Q2097.58 1554.19 2091.94 1559.95 Z" fill="#000000" fill-rule="nonzero" fill-opacity="1" /><path clip-path="url(#clip980)" d="M2118.12 1529.33 L2136.47 1529.33 L2136.47 1533.26 L2122.4 1533.26 L2122.4 1541.74 Q2123.42 1541.39 2124.44 1541.23 Q2125.45 1541.04 2126.47 1541.04 Q2132.26 1541.04 2135.64 1544.21 Q2139.02 1547.38 2139.02 1552.8 Q2139.02 1558.38 2135.55 1561.48 Q2132.07 1564.56 2125.76 1564.56 Q2123.58 1564.56 2121.31 1564.19 Q2119.07 1563.82 2116.66 1563.08 L2116.66 1558.38 Q2118.74 1559.51 2120.96 1560.07 Q2123.19 1560.62 2125.66 1560.62 Q2129.67 1560.62 2132.01 1558.52 Q2134.34 1556.41 2134.34 1552.8 Q2134.34 1549.19 2132.01 1547.08 Q2129.67 1544.98 2125.66 1544.98 Q2123.79 1544.98 2121.91 1545.39 Q2120.06 1545.81 2118.12 1546.69 L2118.12 1529.33 Z" fill="#000000" fill-rule="nonzero" fill-opacity="1" /><path clip-path="url(#clip980)" d="M2416.51 1529.33 L2434.86 1529.33 L2434.86 1533.26 L2420.79 1533.26 L2420.79 1541.74 Q2421.81 1541.39 2422.83 1541.23 Q2423.84 1541.04 2424.86 1541.04 Q2430.65 1541.04 2434.03 1544.21 Q2437.41 1547.38 2437.41 1552.8 Q2437.41 1558.38 2433.94 1561.48 Q2430.47 1564.56 2424.15 1564.56 Q2421.97 1564.56 2419.7 1564.19 Q2417.46 1563.82 2415.05 1563.08 L2415.05 1558.38 Q2417.13 1559.51 2419.35 1560.07 Q2421.58 1560.62 2424.05 1560.62 Q2428.06 1560.62 2430.4 1558.52 Q2432.73 1556.41 2432.73 1552.8 Q2432.73 1549.19 2430.4 1547.08 Q2428.06 1544.98 2424.05 1544.98 Q2422.18 1544.98 2420.3 1545.39 Q2418.45 1545.81 2416.51 1546.69 L2416.51 1529.33 Z" fill="#000000" fill-rule="nonzero" fill-opacity="1" /><path clip-path="url(#clip980)" d="M2456.62 1532.41 Q2453.01 1532.41 2451.18 1535.97 Q2449.38 1539.51 2449.38 1546.64 Q2449.38 1553.75 2451.18 1557.31 Q2453.01 1560.86 2456.62 1560.86 Q2460.26 1560.86 2462.06 1557.31 Q2463.89 1553.75 2463.89 1546.64 Q2463.89 1539.51 2462.06 1535.97 Q2460.26 1532.41 2456.62 1532.41 M2456.62 1528.7 Q2462.43 1528.7 2465.49 1533.31 Q2468.57 1537.89 2468.57 1546.64 Q2468.57 1555.37 2465.49 1559.98 Q2462.43 1564.56 2456.62 1564.56 Q2450.81 1564.56 2447.73 1559.98 Q2444.68 1555.37 2444.68 1546.64 Q2444.68 1537.89 2447.73 1533.31 Q2450.81 1528.7 2456.62 1528.7 Z" fill="#000000" fill-rule="nonzero" fill-opacity="1" /><path clip-path="url(#clip980)" d="M2744.8 1529.33 L2767.03 1529.33 L2767.03 1531.32 L2754.48 1563.89 L2749.6 1563.89 L2761.4 1533.26 L2744.8 1533.26 L2744.8 1529.33 Z" fill="#000000" fill-rule="nonzero" fill-opacity="1" /><path clip-path="url(#clip980)" d="M2776.19 1529.33 L2794.55 1529.33 L2794.55 1533.26 L2780.48 1533.26 L2780.48 1541.74 Q2781.49 1541.39 2782.51 1541.23 Q2783.53 1541.04 2784.55 1541.04 Q2790.34 1541.04 2793.72 1544.21 Q2797.1 1547.38 2797.1 1552.8 Q2797.1 1558.38 2793.62 1561.48 Q2790.15 1564.56 2783.83 1564.56 Q2781.66 1564.56 2779.39 1564.19 Q2777.14 1563.82 2774.74 1563.08 L2774.74 1558.38 Q2776.82 1559.51 2779.04 1560.07 Q2781.26 1560.62 2783.74 1560.62 Q2787.74 1560.62 2790.08 1558.52 Q2792.42 1556.41 2792.42 1552.8 Q2792.42 1549.19 2790.08 1547.08 Q2787.74 1544.98 2783.74 1544.98 Q2781.86 1544.98 2779.99 1545.39 Q2778.14 1545.81 2776.19 1546.69 L2776.19 1529.33 Z" fill="#000000" fill-rule="nonzero" fill-opacity="1" /><path clip-path="url(#clip980)" d="M3059.7 1559.95 L3067.34 1559.95 L3067.34 1533.59 L3059.03 1535.25 L3059.03 1530.99 L3067.29 1529.33 L3071.97 1529.33 L3071.97 1559.95 L3079.61 1559.95 L3079.61 1563.89 L3059.7 1563.89 L3059.7 1559.95 Z" fill="#000000" fill-rule="nonzero" fill-opacity="1" /><path clip-path="url(#clip980)" d="M3099.05 1532.41 Q3095.44 1532.41 3093.61 1535.97 Q3091.81 1539.51 3091.81 1546.64 Q3091.81 1553.75 3093.61 1557.31 Q3095.44 1560.86 3099.05 1560.86 Q3102.69 1560.86 3104.49 1557.31 Q3106.32 1553.75 3106.32 1546.64 Q3106.32 1539.51 3104.49 1535.97 Q3102.69 1532.41 3099.05 1532.41 M3099.05 1528.7 Q3104.86 1528.7 3107.92 1533.31 Q3111 1537.89 3111 1546.64 Q3111 1555.37 3107.92 1559.98 Q3104.86 1564.56 3099.05 1564.56 Q3093.24 1564.56 3090.16 1559.98 Q3087.11 1555.37 3087.11 1546.64 Q3087.11 1537.89 3090.16 1533.31 Q3093.24 1528.7 3099.05 1528.7 Z" fill="#000000" fill-rule="nonzero" fill-opacity="1" /><path clip-path="url(#clip980)" d="M3129.21 1532.41 Q3125.6 1532.41 3123.77 1535.97 Q3121.97 1539.51 3121.97 1546.64 Q3121.97 1553.75 3123.77 1557.31 Q3125.6 1560.86 3129.21 1560.86 Q3132.85 1560.86 3134.65 1557.31 Q3136.48 1553.75 3136.48 1546.64 Q3136.48 1539.51 3134.65 1535.97 Q3132.85 1532.41 3129.21 1532.41 M3129.21 1528.7 Q3135.02 1528.7 3138.08 1533.31 Q3141.16 1537.89 3141.16 1546.64 Q3141.16 1555.37 3138.08 1559.98 Q3135.02 1564.56 3129.21 1564.56 Q3123.4 1564.56 3120.32 1559.98 Q3117.27 1555.37 3117.27 1546.64 Q3117.27 1537.89 3120.32 1533.31 Q3123.4 1528.7 3129.21 1528.7 Z" fill="#000000" fill-rule="nonzero" fill-opacity="1" /><polyline clip-path="url(#clip980)" style="stroke:#000000; stroke-linecap:round; stroke-linejoin:round; stroke-width:4; stroke-opacity:1; fill:none" points="1757.19,1495.09 1757.19,298.472 "/>
<polyline clip-path="url(#clip980)" style="stroke:#000000; stroke-linecap:round; stroke-linejoin:round; stroke-width:4; stroke-opacity:1; fill:none" points="1757.19,1445.38 1776.09,1445.38 "/>
<polyline clip-path="url(#clip980)" style="stroke:#000000; stroke-linecap:round; stroke-linejoin:round; stroke-width:4; stroke-opacity:1; fill:none" points="1757.19,1193.96 1776.09,1193.96 "/>
<polyline clip-path="url(#clip980)" style="stroke:#000000; stroke-linecap:round; stroke-linejoin:round; stroke-width:4; stroke-opacity:1; fill:none" points="1757.19,942.541 1776.09,942.541 "/>
<polyline clip-path="url(#clip980)" style="stroke:#000000; stroke-linecap:round; stroke-linejoin:round; stroke-width:4; stroke-opacity:1; fill:none" points="1757.19,691.122 1776.09,691.122 "/>
<polyline clip-path="url(#clip980)" style="stroke:#000000; stroke-linecap:round; stroke-linejoin:round; stroke-width:4; stroke-opacity:1; fill:none" points="1757.19,439.703 1776.09,439.703 "/>
<path clip-path="url(#clip980)" d="M1647.32 1445.83 L1676.99 1445.83 L1676.99 1449.76 L1647.32 1449.76 L1647.32 1445.83 Z" fill="#000000" fill-rule="nonzero" fill-opacity="1" /><path clip-path="url(#clip980)" d="M1697.66 1443.51 Q1694.52 1443.51 1692.66 1445.67 Q1690.83 1447.82 1690.83 1451.57 Q1690.83 1455.3 1692.66 1457.47 Q1694.52 1459.63 1697.66 1459.63 Q1700.81 1459.63 1702.64 1457.47 Q1704.49 1455.3 1704.49 1451.57 Q1704.49 1447.82 1702.64 1445.67 Q1700.81 1443.51 1697.66 1443.51 M1706.95 1428.86 L1706.95 1433.12 Q1705.19 1432.29 1703.38 1431.85 Q1701.6 1431.41 1699.84 1431.41 Q1695.21 1431.41 1692.76 1434.53 Q1690.33 1437.66 1689.98 1443.98 Q1691.34 1441.96 1693.4 1440.9 Q1695.46 1439.81 1697.94 1439.81 Q1703.15 1439.81 1706.16 1442.98 Q1709.19 1446.13 1709.19 1451.57 Q1709.19 1456.89 1706.04 1460.11 Q1702.89 1463.33 1697.66 1463.33 Q1691.67 1463.33 1688.5 1458.75 Q1685.33 1454.14 1685.33 1445.41 Q1685.33 1437.22 1689.21 1432.36 Q1693.1 1427.47 1699.65 1427.47 Q1701.41 1427.47 1703.2 1427.82 Q1705 1428.17 1706.95 1428.86 Z" fill="#000000" fill-rule="nonzero" fill-opacity="1" /><path clip-path="url(#clip980)" d="M1646.99 1194.41 L1676.67 1194.41 L1676.67 1198.35 L1646.99 1198.35 L1646.99 1194.41 Z" fill="#000000" fill-rule="nonzero" fill-opacity="1" /><path clip-path="url(#clip980)" d="M1699.61 1180.75 L1687.8 1199.2 L1699.61 1199.2 L1699.61 1180.75 M1698.38 1176.68 L1704.26 1176.68 L1704.26 1199.2 L1709.19 1199.2 L1709.19 1203.09 L1704.26 1203.09 L1704.26 1211.24 L1699.61 1211.24 L1699.61 1203.09 L1684.01 1203.09 L1684.01 1198.58 L1698.38 1176.68 Z" fill="#000000" fill-rule="nonzero" fill-opacity="1" /><path clip-path="url(#clip980)" d="M1649.08 942.992 L1678.75 942.992 L1678.75 946.927 L1649.08 946.927 L1649.08 942.992 Z" fill="#000000" fill-rule="nonzero" fill-opacity="1" /><path clip-path="url(#clip980)" d="M1692.87 955.885 L1709.19 955.885 L1709.19 959.821 L1687.25 959.821 L1687.25 955.885 Q1689.91 953.131 1694.49 948.501 Q1699.1 943.848 1700.28 942.506 Q1702.52 939.983 1703.4 938.247 Q1704.31 936.487 1704.31 934.797 Q1704.31 932.043 1702.36 930.307 Q1700.44 928.571 1697.34 928.571 Q1695.14 928.571 1692.69 929.335 Q1690.26 930.098 1687.48 931.649 L1687.48 926.927 Q1690.3 925.793 1692.76 925.214 Q1695.21 924.636 1697.25 924.636 Q1702.62 924.636 1705.81 927.321 Q1709.01 930.006 1709.01 934.497 Q1709.01 936.626 1708.2 938.547 Q1707.41 940.446 1705.3 943.038 Q1704.72 943.709 1701.62 946.927 Q1698.52 950.121 1692.87 955.885 Z" fill="#000000" fill-rule="nonzero" fill-opacity="1" /><path clip-path="url(#clip980)" d="M1697.25 676.92 Q1693.64 676.92 1691.81 680.485 Q1690 684.027 1690 691.156 Q1690 698.263 1691.81 701.828 Q1693.64 705.369 1697.25 705.369 Q1700.88 705.369 1702.69 701.828 Q1704.51 698.263 1704.51 691.156 Q1704.51 684.027 1702.69 680.485 Q1700.88 676.92 1697.25 676.92 M1697.25 673.217 Q1703.06 673.217 1706.11 677.823 Q1709.19 682.406 1709.19 691.156 Q1709.19 699.883 1706.11 704.49 Q1703.06 709.073 1697.25 709.073 Q1691.44 709.073 1688.36 704.49 Q1685.3 699.883 1685.3 691.156 Q1685.3 682.406 1688.36 677.823 Q1691.44 673.217 1697.25 673.217 Z" fill="#000000" fill-rule="nonzero" fill-opacity="1" /><path clip-path="url(#clip980)" d="M1692.87 453.047 L1709.19 453.047 L1709.19 456.983 L1687.25 456.983 L1687.25 453.047 Q1689.91 450.293 1694.49 445.663 Q1699.1 441.011 1700.28 439.668 Q1702.52 437.145 1703.4 435.409 Q1704.31 433.649 1704.31 431.96 Q1704.31 429.205 1702.36 427.469 Q1700.44 425.733 1697.34 425.733 Q1695.14 425.733 1692.69 426.497 Q1690.26 427.261 1687.48 428.812 L1687.48 424.089 Q1690.3 422.955 1692.76 422.376 Q1695.21 421.798 1697.25 421.798 Q1702.62 421.798 1705.81 424.483 Q1709.01 427.168 1709.01 431.659 Q1709.01 433.788 1708.2 435.71 Q1707.41 437.608 1705.3 440.2 Q1704.72 440.872 1701.62 444.089 Q1698.52 447.284 1692.87 453.047 Z" fill="#000000" fill-rule="nonzero" fill-opacity="1" /><polyline clip-path="url(#clip984)" style="stroke:#009af9; stroke-linecap:round; stroke-linejoin:round; stroke-width:4; stroke-opacity:1; fill:none" points="1796.69,822.803 1809.85,889.669 1823.02,890.544 1836.19,878.261 1849.35,861.345 1862.52,839.175 1875.68,836.162 1888.85,851.54 1902.01,830.073 1915.18,810.096 1928.35,801.961 1941.51,806.014 1954.68,804.03 1967.84,804.983 1981.01,801.471 1994.17,809.46 2007.34,801.067 2020.51,800.158 2033.67,791.015 2046.84,777.369 2060,763.055 2073.17,766.632 2086.33,751.887 2099.5,750.94 2112.66,758.941 2125.83,777.54 2139,772.369 2152.16,780.603 2165.33,765.046 2178.49,759.942 2191.66,749.761 2204.82,759.777 2217.99,778.504 2231.16,787.586 2244.32,782.713 2257.49,788.112 2270.65,798.173 2283.82,797.109 2296.98,786.104 2310.15,788.638 2323.32,790.581 2336.48,794.201 2349.65,794.826 2362.81,788.186 2375.98,779.281 2389.14,781.638 2402.31,795.539 2415.48,796.958 2428.64,792.988 2441.81,788.402 2454.97,760.635 2468.14,754.688 2481.3,780.498 2494.47,784.717 2507.64,770.407 2520.8,775.979 2533.97,792.851 2547.13,787.255 2560.3,780.526 2573.46,781.053 2586.63,778.331 2599.8,786.04 2612.96,780.325 2626.13,772.43 2639.29,770.145 2652.46,767.724 2665.62,766.635 2678.79,773.845 2691.96,782.4 2705.12,774.283 2718.29,771.174 2731.45,758.76 2744.62,767.44 2757.78,768.995 2770.95,762.405 2784.12,754.293 2797.28,752.405 2810.45,762.416 2823.61,757.272 2836.78,767.917 2849.94,773.925 2863.11,785.054 2876.28,786.087 2889.44,794.958 2902.61,798.336 2915.77,807.623 2928.94,806.611 2942.1,813.143 2955.27,797.72 2968.44,781.626 2981.6,780.567 2994.77,764.622 3007.93,767.017 3021.1,755.867 3034.26,777.439 3047.43,764.219 3060.6,761.215 3073.76,766.482 3086.93,775.655 3100.09,765.801 3113.26,767.884 "/>
<polyline clip-path="url(#clip984)" style="stroke:#e26f46; stroke-linecap:round; stroke-linejoin:round; stroke-width:4; stroke-opacity:1; fill:none" points="1796.69,822.492 1809.85,516.973 1823.02,464.058 1836.19,428.111 1849.35,409.685 1862.52,394.293 1875.68,388.317 1888.85,383.052 1902.01,377.972 1915.18,378.984 1928.35,375.808 1941.51,379.965 1954.68,383.236 1967.84,376.016 1981.01,375.524 1994.17,379.201 2007.34,364.595 2020.51,365.682 2033.67,364.218 2046.84,360.78 2060,362.624 2073.17,364.015 2086.33,363.376 2099.5,355.434 2112.66,345.658 2125.83,347.285 2139,346.779 2152.16,336.534 2165.33,337.212 2178.49,338.682 2191.66,333.515 2204.82,336.863 2217.99,341.067 2231.16,342.43 2244.32,355.045 2257.49,353.804 2270.65,353.27 2283.82,350.959 2296.98,352.221 2310.15,358.979 2323.32,347.544 2336.48,348.49 2349.65,352.588 2362.81,355.779 2375.98,356.375 2389.14,347.704 2402.31,359.925 2415.48,359.696 2428.64,352.648 2441.81,347.8 2454.97,346.703 2468.14,355.186 2481.3,339.047 2494.47,346.091 2507.64,349.281 2520.8,350.086 2533.97,343.349 2547.13,350.387 2560.3,351.26 2573.46,343.617 2586.63,347.961 2599.8,336.334 2612.96,334.593 2626.13,334.585 2639.29,335.976 2652.46,340.524 2665.62,344.709 2678.79,337.06 2691.96,346.824 2705.12,348.981 2718.29,353.156 2731.45,343.205 2744.62,347.91 2757.78,347.208 2770.95,346.735 2784.12,344.45 2797.28,343.442 2810.45,337.776 2823.61,339.958 2836.78,335.809 2849.94,339.019 2863.11,332.339 2876.28,334.825 2889.44,340.556 2902.61,332.424 2915.77,345.886 2928.94,349.415 2942.1,343.143 2955.27,342.976 2968.44,348.481 2981.6,341.908 2994.77,343.793 3007.93,347.103 3021.1,334.402 3034.26,343.186 3047.43,352.796 3060.6,345.477 3073.76,337.765 3086.93,339.455 3100.09,339.317 3113.26,344.147 "/>
<polyline clip-path="url(#clip984)" style="stroke:#3da44d; stroke-linecap:round; stroke-linejoin:round; stroke-width:4; stroke-opacity:1; fill:none" points="1796.69,828.32 1809.85,757.693 1823.02,747.94 1836.19,746.514 1849.35,732.478 1862.52,725.91 1875.68,720.859 1888.85,729.007 1902.01,721.133 1915.18,709.148 1928.35,703.96 1941.51,703.579 1954.68,712.302 1967.84,708.34 1981.01,709.283 1994.17,712.208 2007.34,718.345 2020.51,704.667 2033.67,708.038 2046.84,700.08 2060,696.964 2073.17,698.438 2086.33,681.31 2099.5,686.433 2112.66,697.067 2125.83,694.311 2139,703.162 2152.16,706.027 2165.33,683.486 2178.49,690.222 2191.66,693.782 2204.82,688.47 2217.99,677.545 2231.16,701.604 2244.32,693.932 2257.49,702.241 2270.65,691.345 2283.82,698.148 2296.98,692.054 2310.15,700.096 2323.32,697.074 2336.48,694.993 2349.65,695.946 2362.81,686.02 2375.98,691.899 2389.14,691.045 2402.31,698.385 2415.48,698.961 2428.64,704.767 2441.81,700.13 2454.97,694.416 2468.14,680.437 2481.3,696.816 2494.47,702.408 2507.64,697.845 2520.8,694.977 2533.97,703.102 2547.13,700.675 2560.3,694.828 2573.46,698.354 2586.63,700.337 2599.8,697.436 2612.96,701.68 2626.13,700.273 2639.29,703.419 2652.46,692.434 2665.62,686.909 2678.79,680.538 2691.96,693.474 2705.12,693.069 2718.29,709.383 2731.45,689.953 2744.62,691.295 2757.78,703.042 2770.95,691.62 2784.12,688.202 2797.28,683.031 2810.45,683.163 2823.61,685.898 2836.78,692.761 2849.94,696.844 2863.11,698.309 2876.28,688.6 2889.44,694.119 2902.61,703.238 2915.77,709.5 2928.94,709.892 2942.1,705.999 2955.27,700.134 2968.44,693.916 2981.6,683.227 2994.77,684.764 3007.93,691.022 3021.1,689.521 3034.26,688.498 3047.43,680.647 3060.6,690.687 3073.76,687.862 3086.93,685.724 3100.09,695.866 3113.26,695.049 "/>
<polyline clip-path="url(#clip984)" style="stroke:#c271d2; stroke-linecap:round; stroke-linejoin:round; stroke-width:4; stroke-opacity:1; fill:none" points="1796.69,691.122 1809.85,1110.66 1823.02,1193.21 1836.19,1258.13 1849.35,1290.06 1862.52,1313.82 1875.68,1336.81 1888.85,1345.59 1902.01,1346.53 1915.18,1370.49 1928.35,1368.37 1941.51,1359.73 1954.68,1360.97 1967.84,1356.29 1981.01,1376.34 1994.17,1370.61 2007.34,1388.57 2020.51,1393.37 2033.67,1389.5 2046.84,1405.46 2060,1410.57 2073.17,1412.21 2086.33,1408.4 2099.5,1425.19 2112.66,1429.73 2125.83,1420.6 2139,1433.19 2152.16,1461.22 2165.33,1445.5 2178.49,1449.11 2191.66,1455.01 2204.82,1449.4 2217.99,1428.27 2231.16,1423.28 2244.32,1408.28 2257.49,1406.51 2270.65,1417.35 2283.82,1420.2 2296.98,1409.36 2310.15,1412.17 2323.32,1412.26 2336.48,1412.52 2349.65,1409.4 2362.81,1417.82 2375.98,1411.84 2389.14,1412.58 2402.31,1400.57 2415.48,1401.24 2428.64,1418.63 2441.81,1421.3 2454.97,1424.17 2468.14,1432.05 2481.3,1440.23 2494.47,1431.5 2507.64,1437.2 2520.8,1423.75 2533.97,1434.94 2547.13,1425.83 2560.3,1428.65 2573.46,1420.14 2586.63,1424.69 2599.8,1448.46 2612.96,1449.28 2626.13,1451.72 2639.29,1454.9 2652.46,1456.59 2665.62,1436 2678.79,1429.72 2691.96,1424.98 2705.12,1426.74 2718.29,1423.06 2731.45,1437.73 2744.62,1424.22 2757.78,1440.46 2770.95,1437.97 2784.12,1440.88 2797.28,1434.96 2810.45,1449.48 2823.61,1444.52 2836.78,1456.03 2849.94,1445.04 2863.11,1448.85 2876.28,1444.57 2889.44,1437.82 2902.61,1448.82 2915.77,1426.92 2928.94,1420.32 2942.1,1421.72 2955.27,1421.69 2968.44,1421.5 2981.6,1434.81 2994.77,1438.58 3007.93,1430.44 3021.1,1445.14 3034.26,1433.8 3047.43,1420.98 3060.6,1434.49 3073.76,1440.32 3086.93,1448.33 3100.09,1449.07 3113.26,1431.01 "/>
<path clip-path="url(#clip980)" d="M1803.71 1455.2 L2151.62 1455.2 L2151.62 1196 L1803.71 1196  Z" fill="#ffffff" fill-rule="evenodd" fill-opacity="1"/>
<polyline clip-path="url(#clip980)" style="stroke:#000000; stroke-linecap:round; stroke-linejoin:round; stroke-width:4; stroke-opacity:1; fill:none" points="1803.71,1455.2 2151.62,1455.2 2151.62,1196 1803.71,1196 1803.71,1455.2 "/>
<polyline clip-path="url(#clip980)" style="stroke:#009af9; stroke-linecap:round; stroke-linejoin:round; stroke-width:4; stroke-opacity:1; fill:none" points="1819.22,1247.84 1912.25,1247.84 "/>
<path clip-path="url(#clip980)" d="M1950.01 1231.69 L1950.01 1236.26 Q1947.34 1234.98 1944.98 1234.36 Q1942.62 1233.73 1940.42 1233.73 Q1936.6 1233.73 1934.52 1235.21 Q1932.46 1236.69 1932.46 1239.43 Q1932.46 1241.72 1933.82 1242.9 Q1935.21 1244.06 1939.06 1244.77 L1941.88 1245.35 Q1947.11 1246.35 1949.59 1248.87 Q1952.09 1251.37 1952.09 1255.58 Q1952.09 1260.61 1948.71 1263.2 Q1945.35 1265.79 1938.85 1265.79 Q1936.39 1265.79 1933.62 1265.24 Q1930.86 1264.68 1927.9 1263.59 L1927.9 1258.78 Q1930.75 1260.38 1933.48 1261.19 Q1936.21 1262 1938.85 1262 Q1942.85 1262 1945.03 1260.42 Q1947.2 1258.85 1947.2 1255.93 Q1947.2 1253.38 1945.63 1251.95 Q1944.08 1250.51 1940.51 1249.8 L1937.67 1249.24 Q1932.44 1248.2 1930.1 1245.98 Q1927.76 1243.76 1927.76 1239.8 Q1927.76 1235.21 1930.98 1232.57 Q1934.22 1229.94 1939.89 1229.94 Q1942.32 1229.94 1944.84 1230.38 Q1947.37 1230.82 1950.01 1231.69 Z" fill="#000000" fill-rule="nonzero" fill-opacity="1" /><path clip-path="url(#clip980)" d="M1963.41 1231.83 L1963.41 1239.19 L1972.18 1239.19 L1972.18 1242.51 L1963.41 1242.51 L1963.41 1256.58 Q1963.41 1259.75 1964.26 1260.65 Q1965.14 1261.56 1967.81 1261.56 L1972.18 1261.56 L1972.18 1265.12 L1967.81 1265.12 Q1962.88 1265.12 1961 1263.29 Q1959.13 1261.44 1959.13 1256.58 L1959.13 1242.51 L1956 1242.51 L1956 1239.19 L1959.13 1239.19 L1959.13 1231.83 L1963.41 1231.83 Z" fill="#000000" fill-rule="nonzero" fill-opacity="1" /><path clip-path="url(#clip980)" d="M1977.34 1254.89 L1977.34 1239.19 L1981.6 1239.19 L1981.6 1254.73 Q1981.6 1258.41 1983.04 1260.26 Q1984.47 1262.09 1987.34 1262.09 Q1990.79 1262.09 1992.78 1259.89 Q1994.8 1257.69 1994.8 1253.89 L1994.8 1239.19 L1999.06 1239.19 L1999.06 1265.12 L1994.8 1265.12 L1994.8 1261.14 Q1993.25 1263.5 1991.19 1264.66 Q1989.15 1265.79 1986.44 1265.79 Q1981.97 1265.79 1979.66 1263.01 Q1977.34 1260.24 1977.34 1254.89 M1988.06 1238.57 L1988.06 1238.57 Z" fill="#000000" fill-rule="nonzero" fill-opacity="1" /><path clip-path="url(#clip980)" d="M2024.89 1243.13 L2024.89 1229.1 L2029.15 1229.1 L2029.15 1265.12 L2024.89 1265.12 L2024.89 1261.23 Q2023.55 1263.55 2021.49 1264.68 Q2019.45 1265.79 2016.58 1265.79 Q2011.88 1265.79 2008.92 1262.04 Q2005.98 1258.29 2005.98 1252.18 Q2005.98 1246.07 2008.92 1242.32 Q2011.88 1238.57 2016.58 1238.57 Q2019.45 1238.57 2021.49 1239.7 Q2023.55 1240.82 2024.89 1243.13 M2010.38 1252.18 Q2010.38 1256.88 2012.3 1259.57 Q2014.24 1262.23 2017.62 1262.23 Q2021 1262.23 2022.94 1259.57 Q2024.89 1256.88 2024.89 1252.18 Q2024.89 1247.48 2022.94 1244.82 Q2021 1242.13 2017.62 1242.13 Q2014.24 1242.13 2012.3 1244.82 Q2010.38 1247.48 2010.38 1252.18 Z" fill="#000000" fill-rule="nonzero" fill-opacity="1" /><path clip-path="url(#clip980)" d="M2060.1 1251.09 L2060.1 1253.18 L2040.51 1253.18 Q2040.79 1257.57 2043.15 1259.89 Q2045.54 1262.18 2049.77 1262.18 Q2052.23 1262.18 2054.52 1261.58 Q2056.83 1260.98 2059.1 1259.77 L2059.1 1263.8 Q2056.81 1264.77 2054.4 1265.28 Q2052 1265.79 2049.52 1265.79 Q2043.31 1265.79 2039.68 1262.18 Q2036.07 1258.57 2036.07 1252.41 Q2036.07 1246.05 2039.5 1242.32 Q2042.94 1238.57 2048.78 1238.57 Q2054.01 1238.57 2057.04 1241.95 Q2060.1 1245.31 2060.1 1251.09 M2055.84 1249.84 Q2055.79 1246.35 2053.87 1244.26 Q2051.97 1242.18 2048.82 1242.18 Q2045.26 1242.18 2043.11 1244.19 Q2040.98 1246.21 2040.65 1249.87 L2055.84 1249.84 Z" fill="#000000" fill-rule="nonzero" fill-opacity="1" /><path clip-path="url(#clip980)" d="M2088.64 1249.47 L2088.64 1265.12 L2084.38 1265.12 L2084.38 1249.61 Q2084.38 1245.93 2082.94 1244.1 Q2081.51 1242.27 2078.64 1242.27 Q2075.19 1242.27 2073.2 1244.47 Q2071.21 1246.67 2071.21 1250.47 L2071.21 1265.12 L2066.93 1265.12 L2066.93 1239.19 L2071.21 1239.19 L2071.21 1243.22 Q2072.74 1240.88 2074.8 1239.73 Q2076.88 1238.57 2079.59 1238.57 Q2084.06 1238.57 2086.35 1241.35 Q2088.64 1244.1 2088.64 1249.47 Z" fill="#000000" fill-rule="nonzero" fill-opacity="1" /><path clip-path="url(#clip980)" d="M2101.35 1231.83 L2101.35 1239.19 L2110.12 1239.19 L2110.12 1242.51 L2101.35 1242.51 L2101.35 1256.58 Q2101.35 1259.75 2102.2 1260.65 Q2103.08 1261.56 2105.75 1261.56 L2110.12 1261.56 L2110.12 1265.12 L2105.75 1265.12 Q2100.81 1265.12 2098.94 1263.29 Q2097.06 1261.44 2097.06 1256.58 L2097.06 1242.51 L2093.94 1242.51 L2093.94 1239.19 L2097.06 1239.19 L2097.06 1231.83 L2101.35 1231.83 Z" fill="#000000" fill-rule="nonzero" fill-opacity="1" /><polyline clip-path="url(#clip980)" style="stroke:#e26f46; stroke-linecap:round; stroke-linejoin:round; stroke-width:4; stroke-opacity:1; fill:none" points="1819.22,1299.68 1912.25,1299.68 "/>
<path clip-path="url(#clip980)" d="M1932.44 1300.46 L1932.44 1313.12 L1939.94 1313.12 Q1943.71 1313.12 1945.51 1311.57 Q1947.34 1309.99 1947.34 1306.78 Q1947.34 1303.53 1945.51 1302.01 Q1943.71 1300.46 1939.94 1300.46 L1932.44 1300.46 M1932.44 1286.24 L1932.44 1296.66 L1939.36 1296.66 Q1942.78 1296.66 1944.45 1295.39 Q1946.14 1294.09 1946.14 1291.45 Q1946.14 1288.84 1944.45 1287.54 Q1942.78 1286.24 1939.36 1286.24 L1932.44 1286.24 M1927.76 1282.4 L1939.7 1282.4 Q1945.05 1282.4 1947.95 1284.62 Q1950.84 1286.85 1950.84 1290.94 Q1950.84 1294.11 1949.36 1295.99 Q1947.88 1297.86 1945.01 1298.33 Q1948.45 1299.07 1950.35 1301.43 Q1952.27 1303.77 1952.27 1307.28 Q1952.27 1311.91 1949.13 1314.44 Q1945.98 1316.96 1940.17 1316.96 L1927.76 1316.96 L1927.76 1282.4 Z" fill="#000000" fill-rule="nonzero" fill-opacity="1" /><path clip-path="url(#clip980)" d="M1971.88 1303.93 Q1966.72 1303.93 1964.73 1305.11 Q1962.74 1306.29 1962.74 1309.14 Q1962.74 1311.41 1964.22 1312.75 Q1965.72 1314.07 1968.29 1314.07 Q1971.83 1314.07 1973.96 1311.57 Q1976.12 1309.04 1976.12 1304.88 L1976.12 1303.93 L1971.88 1303.93 M1980.38 1302.17 L1980.38 1316.96 L1976.12 1316.96 L1976.12 1313.03 Q1974.66 1315.39 1972.48 1316.52 Q1970.31 1317.63 1967.16 1317.63 Q1963.18 1317.63 1960.82 1315.41 Q1958.48 1313.16 1958.48 1309.41 Q1958.48 1305.04 1961.39 1302.82 Q1964.33 1300.6 1970.14 1300.6 L1976.12 1300.6 L1976.12 1300.18 Q1976.12 1297.24 1974.17 1295.64 Q1972.25 1294.02 1968.76 1294.02 Q1966.53 1294.02 1964.43 1294.55 Q1962.32 1295.09 1960.38 1296.15 L1960.38 1292.22 Q1962.71 1291.31 1964.91 1290.87 Q1967.11 1290.41 1969.19 1290.41 Q1974.82 1290.41 1977.6 1293.33 Q1980.38 1296.24 1980.38 1302.17 Z" fill="#000000" fill-rule="nonzero" fill-opacity="1" /><path clip-path="url(#clip980)" d="M1989.15 1280.94 L1993.41 1280.94 L1993.41 1316.96 L1989.15 1316.96 L1989.15 1280.94 Z" fill="#000000" fill-rule="nonzero" fill-opacity="1" /><path clip-path="url(#clip980)" d="M2014.1 1303.93 Q2008.94 1303.93 2006.95 1305.11 Q2004.96 1306.29 2004.96 1309.14 Q2004.96 1311.41 2006.44 1312.75 Q2007.94 1314.07 2010.51 1314.07 Q2014.06 1314.07 2016.19 1311.57 Q2018.34 1309.04 2018.34 1304.88 L2018.34 1303.93 L2014.1 1303.93 M2022.6 1302.17 L2022.6 1316.96 L2018.34 1316.96 L2018.34 1313.03 Q2016.88 1315.39 2014.7 1316.52 Q2012.53 1317.63 2009.38 1317.63 Q2005.4 1317.63 2003.04 1315.41 Q2000.7 1313.16 2000.7 1309.41 Q2000.7 1305.04 2003.62 1302.82 Q2006.56 1300.6 2012.37 1300.6 L2018.34 1300.6 L2018.34 1300.18 Q2018.34 1297.24 2016.39 1295.64 Q2014.47 1294.02 2010.98 1294.02 Q2008.75 1294.02 2006.65 1294.55 Q2004.54 1295.09 2002.6 1296.15 L2002.6 1292.22 Q2004.94 1291.31 2007.13 1290.87 Q2009.33 1290.41 2011.42 1290.41 Q2017.04 1290.41 2019.82 1293.33 Q2022.6 1296.24 2022.6 1302.17 Z" fill="#000000" fill-rule="nonzero" fill-opacity="1" /><path clip-path="url(#clip980)" d="M2052.92 1301.31 L2052.92 1316.96 L2048.66 1316.96 L2048.66 1301.45 Q2048.66 1297.77 2047.23 1295.94 Q2045.79 1294.11 2042.92 1294.11 Q2039.47 1294.11 2037.48 1296.31 Q2035.49 1298.51 2035.49 1302.31 L2035.49 1316.96 L2031.21 1316.96 L2031.21 1291.03 L2035.49 1291.03 L2035.49 1295.06 Q2037.02 1292.72 2039.08 1291.57 Q2041.16 1290.41 2043.87 1290.41 Q2048.34 1290.41 2050.63 1293.19 Q2052.92 1295.94 2052.92 1301.31 Z" fill="#000000" fill-rule="nonzero" fill-opacity="1" /><path clip-path="url(#clip980)" d="M2080.07 1292.03 L2080.07 1296.01 Q2078.27 1295.02 2076.44 1294.53 Q2074.63 1294.02 2072.78 1294.02 Q2068.64 1294.02 2066.35 1296.66 Q2064.06 1299.28 2064.06 1304.02 Q2064.06 1308.77 2066.35 1311.41 Q2068.64 1314.02 2072.78 1314.02 Q2074.63 1314.02 2076.44 1313.53 Q2078.27 1313.03 2080.07 1312.03 L2080.07 1315.97 Q2078.29 1316.8 2076.37 1317.22 Q2074.47 1317.63 2072.32 1317.63 Q2066.46 1317.63 2063.01 1313.95 Q2059.56 1310.27 2059.56 1304.02 Q2059.56 1297.68 2063.04 1294.04 Q2066.53 1290.41 2072.6 1290.41 Q2074.56 1290.41 2076.44 1290.83 Q2078.31 1291.22 2080.07 1292.03 Z" fill="#000000" fill-rule="nonzero" fill-opacity="1" /><path clip-path="url(#clip980)" d="M2109.66 1302.93 L2109.66 1305.02 L2090.07 1305.02 Q2090.35 1309.41 2092.71 1311.73 Q2095.1 1314.02 2099.33 1314.02 Q2101.79 1314.02 2104.08 1313.42 Q2106.39 1312.82 2108.66 1311.61 L2108.66 1315.64 Q2106.37 1316.61 2103.96 1317.12 Q2101.56 1317.63 2099.08 1317.63 Q2092.87 1317.63 2089.24 1314.02 Q2085.63 1310.41 2085.63 1304.25 Q2085.63 1297.89 2089.06 1294.16 Q2092.5 1290.41 2098.34 1290.41 Q2103.57 1290.41 2106.6 1293.79 Q2109.66 1297.15 2109.66 1302.93 M2105.4 1301.68 Q2105.35 1298.19 2103.43 1296.1 Q2101.53 1294.02 2098.38 1294.02 Q2094.82 1294.02 2092.67 1296.03 Q2090.54 1298.05 2090.21 1301.71 L2105.4 1301.68 Z" fill="#000000" fill-rule="nonzero" fill-opacity="1" /><polyline clip-path="url(#clip980)" style="stroke:#3da44d; stroke-linecap:round; stroke-linejoin:round; stroke-width:4; stroke-opacity:1; fill:none" points="1819.22,1351.52 1912.25,1351.52 "/>
<path clip-path="url(#clip980)" d="M1927.76 1334.24 L1932.44 1334.24 L1932.44 1368.8 L1927.76 1368.8 L1927.76 1334.24 Z" fill="#000000" fill-rule="nonzero" fill-opacity="1" /><path clip-path="url(#clip980)" d="M1963.11 1353.15 L1963.11 1368.8 L1958.85 1368.8 L1958.85 1353.29 Q1958.85 1349.61 1957.41 1347.78 Q1955.98 1345.95 1953.11 1345.95 Q1949.66 1345.95 1947.67 1348.15 Q1945.68 1350.35 1945.68 1354.15 L1945.68 1368.8 L1941.39 1368.8 L1941.39 1342.87 L1945.68 1342.87 L1945.68 1346.9 Q1947.2 1344.56 1949.26 1343.41 Q1951.35 1342.25 1954.06 1342.25 Q1958.52 1342.25 1960.82 1345.03 Q1963.11 1347.78 1963.11 1353.15 Z" fill="#000000" fill-rule="nonzero" fill-opacity="1" /><path clip-path="url(#clip980)" d="M1990.26 1343.87 L1990.26 1347.85 Q1988.45 1346.86 1986.63 1346.37 Q1984.82 1345.86 1982.97 1345.86 Q1978.82 1345.86 1976.53 1348.5 Q1974.24 1351.12 1974.24 1355.86 Q1974.24 1360.61 1976.53 1363.25 Q1978.82 1365.86 1982.97 1365.86 Q1984.82 1365.86 1986.63 1365.37 Q1988.45 1364.87 1990.26 1363.87 L1990.26 1367.81 Q1988.48 1368.64 1986.56 1369.06 Q1984.66 1369.47 1982.51 1369.47 Q1976.65 1369.47 1973.2 1365.79 Q1969.75 1362.11 1969.75 1355.86 Q1969.75 1349.52 1973.22 1345.88 Q1976.72 1342.25 1982.78 1342.25 Q1984.75 1342.25 1986.63 1342.67 Q1988.5 1343.06 1990.26 1343.87 Z" fill="#000000" fill-rule="nonzero" fill-opacity="1" /><path clip-path="url(#clip980)" d="M2007.71 1345.86 Q2004.29 1345.86 2002.3 1348.55 Q2000.31 1351.21 2000.31 1355.86 Q2000.31 1360.51 2002.27 1363.2 Q2004.26 1365.86 2007.71 1365.86 Q2011.12 1365.86 2013.11 1363.18 Q2015.1 1360.49 2015.1 1355.86 Q2015.1 1351.25 2013.11 1348.57 Q2011.12 1345.86 2007.71 1345.86 M2007.71 1342.25 Q2013.27 1342.25 2016.44 1345.86 Q2019.61 1349.47 2019.61 1355.86 Q2019.61 1362.23 2016.44 1365.86 Q2013.27 1369.47 2007.71 1369.47 Q2002.13 1369.47 1998.96 1365.86 Q1995.82 1362.23 1995.82 1355.86 Q1995.82 1349.47 1998.96 1345.86 Q2002.13 1342.25 2007.71 1342.25 Z" fill="#000000" fill-rule="nonzero" fill-opacity="1" /><path clip-path="url(#clip980)" d="M2046.86 1347.85 Q2048.45 1344.98 2050.68 1343.62 Q2052.9 1342.25 2055.91 1342.25 Q2059.96 1342.25 2062.16 1345.1 Q2064.36 1347.92 2064.36 1353.15 L2064.36 1368.8 L2060.07 1368.8 L2060.07 1353.29 Q2060.07 1349.56 2058.75 1347.76 Q2057.44 1345.95 2054.73 1345.95 Q2051.42 1345.95 2049.5 1348.15 Q2047.57 1350.35 2047.57 1354.15 L2047.57 1368.8 L2043.29 1368.8 L2043.29 1353.29 Q2043.29 1349.54 2041.97 1347.76 Q2040.65 1345.95 2037.9 1345.95 Q2034.63 1345.95 2032.71 1348.18 Q2030.79 1350.37 2030.79 1354.15 L2030.79 1368.8 L2026.51 1368.8 L2026.51 1342.87 L2030.79 1342.87 L2030.79 1346.9 Q2032.25 1344.52 2034.29 1343.38 Q2036.32 1342.25 2039.13 1342.25 Q2041.95 1342.25 2043.92 1343.69 Q2045.91 1345.12 2046.86 1347.85 Z" fill="#000000" fill-rule="nonzero" fill-opacity="1" /><path clip-path="url(#clip980)" d="M2095.03 1354.77 L2095.03 1356.86 L2075.44 1356.86 Q2075.72 1361.25 2078.08 1363.57 Q2080.47 1365.86 2084.7 1365.86 Q2087.16 1365.86 2089.45 1365.26 Q2091.76 1364.66 2094.03 1363.45 L2094.03 1367.48 Q2091.74 1368.45 2089.33 1368.96 Q2086.93 1369.47 2084.45 1369.47 Q2078.25 1369.47 2074.61 1365.86 Q2071 1362.25 2071 1356.09 Q2071 1349.73 2074.43 1346 Q2077.87 1342.25 2083.71 1342.25 Q2088.94 1342.25 2091.97 1345.63 Q2095.03 1348.99 2095.03 1354.77 M2090.77 1353.52 Q2090.72 1350.03 2088.8 1347.94 Q2086.9 1345.86 2083.75 1345.86 Q2080.19 1345.86 2078.04 1347.87 Q2075.91 1349.89 2075.58 1353.55 L2090.77 1353.52 Z" fill="#000000" fill-rule="nonzero" fill-opacity="1" /><polyline clip-path="url(#clip980)" style="stroke:#c271d2; stroke-linecap:round; stroke-linejoin:round; stroke-width:4; stroke-opacity:1; fill:none" points="1819.22,1403.36 1912.25,1403.36 "/>
<path clip-path="url(#clip980)" d="M1927.76 1386.08 L1932.44 1386.08 L1932.44 1420.64 L1927.76 1420.64 L1927.76 1386.08 Z" fill="#000000" fill-rule="nonzero" fill-opacity="1" /><path clip-path="url(#clip980)" d="M1963.11 1404.99 L1963.11 1420.64 L1958.85 1420.64 L1958.85 1405.13 Q1958.85 1401.45 1957.41 1399.62 Q1955.98 1397.79 1953.11 1397.79 Q1949.66 1397.79 1947.67 1399.99 Q1945.68 1402.19 1945.68 1405.99 L1945.68 1420.64 L1941.39 1420.64 L1941.39 1394.71 L1945.68 1394.71 L1945.68 1398.74 Q1947.2 1396.4 1949.26 1395.25 Q1951.35 1394.09 1954.06 1394.09 Q1958.52 1394.09 1960.82 1396.87 Q1963.11 1399.62 1963.11 1404.99 Z" fill="#000000" fill-rule="nonzero" fill-opacity="1" /><path clip-path="url(#clip980)" d="M1975.82 1387.35 L1975.82 1394.71 L1984.59 1394.71 L1984.59 1398.03 L1975.82 1398.03 L1975.82 1412.1 Q1975.82 1415.27 1976.67 1416.17 Q1977.55 1417.08 1980.21 1417.08 L1984.59 1417.08 L1984.59 1420.64 L1980.21 1420.64 Q1975.28 1420.64 1973.41 1418.81 Q1971.53 1416.96 1971.53 1412.1 L1971.53 1398.03 L1968.41 1398.03 L1968.41 1394.71 L1971.53 1394.71 L1971.53 1387.35 L1975.82 1387.35 Z" fill="#000000" fill-rule="nonzero" fill-opacity="1" /><path clip-path="url(#clip980)" d="M2012.37 1406.61 L2012.37 1408.7 L1992.78 1408.7 Q1993.06 1413.09 1995.42 1415.41 Q1997.81 1417.7 2002.04 1417.7 Q2004.5 1417.7 2006.79 1417.1 Q2009.1 1416.5 2011.37 1415.29 L2011.37 1419.32 Q2009.08 1420.29 2006.67 1420.8 Q2004.26 1421.31 2001.79 1421.31 Q1995.58 1421.31 1991.95 1417.7 Q1988.34 1414.09 1988.34 1407.93 Q1988.34 1401.57 1991.76 1397.84 Q1995.21 1394.09 2001.05 1394.09 Q2006.28 1394.09 2009.31 1397.47 Q2012.37 1400.83 2012.37 1406.61 M2008.11 1405.36 Q2008.06 1401.87 2006.14 1399.78 Q2004.24 1397.7 2001.09 1397.7 Q1997.53 1397.7 1995.38 1399.71 Q1993.25 1401.73 1992.92 1405.39 L2008.11 1405.36 Z" fill="#000000" fill-rule="nonzero" fill-opacity="1" /><path clip-path="url(#clip980)" d="M2034.38 1398.7 Q2033.66 1398.28 2032.81 1398.09 Q2031.97 1397.89 2030.95 1397.89 Q2027.34 1397.89 2025.4 1400.25 Q2023.48 1402.59 2023.48 1406.98 L2023.48 1420.64 L2019.19 1420.64 L2019.19 1394.71 L2023.48 1394.71 L2023.48 1398.74 Q2024.82 1396.38 2026.97 1395.25 Q2029.13 1394.09 2032.2 1394.09 Q2032.64 1394.09 2033.18 1394.16 Q2033.71 1394.21 2034.36 1394.32 L2034.38 1398.7 Z" fill="#000000" fill-rule="nonzero" fill-opacity="1" /><path clip-path="url(#clip980)" d="M2056.46 1395.71 L2056.46 1399.69 Q2054.66 1398.7 2052.83 1398.21 Q2051.02 1397.7 2049.17 1397.7 Q2045.03 1397.7 2042.74 1400.34 Q2040.44 1402.96 2040.44 1407.7 Q2040.44 1412.45 2042.74 1415.09 Q2045.03 1417.7 2049.17 1417.7 Q2051.02 1417.7 2052.83 1417.21 Q2054.66 1416.71 2056.46 1415.71 L2056.46 1419.65 Q2054.68 1420.48 2052.76 1420.9 Q2050.86 1421.31 2048.71 1421.31 Q2042.85 1421.31 2039.4 1417.63 Q2035.95 1413.95 2035.95 1407.7 Q2035.95 1401.36 2039.43 1397.72 Q2042.92 1394.09 2048.99 1394.09 Q2050.95 1394.09 2052.83 1394.51 Q2054.7 1394.9 2056.46 1395.71 Z" fill="#000000" fill-rule="nonzero" fill-opacity="1" /><path clip-path="url(#clip980)" d="M2086.05 1406.61 L2086.05 1408.7 L2066.46 1408.7 Q2066.74 1413.09 2069.1 1415.41 Q2071.49 1417.7 2075.72 1417.7 Q2078.18 1417.7 2080.47 1417.1 Q2082.78 1416.5 2085.05 1415.29 L2085.05 1419.32 Q2082.76 1420.29 2080.35 1420.8 Q2077.94 1421.31 2075.47 1421.31 Q2069.26 1421.31 2065.63 1417.7 Q2062.02 1414.09 2062.02 1407.93 Q2062.02 1401.57 2065.44 1397.84 Q2068.89 1394.09 2074.73 1394.09 Q2079.96 1394.09 2082.99 1397.47 Q2086.05 1400.83 2086.05 1406.61 M2081.79 1405.36 Q2081.74 1401.87 2079.82 1399.78 Q2077.92 1397.7 2074.77 1397.7 Q2071.21 1397.7 2069.06 1399.71 Q2066.93 1401.73 2066.6 1405.39 L2081.79 1405.36 Z" fill="#000000" fill-rule="nonzero" fill-opacity="1" /><path clip-path="url(#clip980)" d="M2097.16 1416.75 L2097.16 1430.5 L2092.87 1430.5 L2092.87 1394.71 L2097.16 1394.71 L2097.16 1398.65 Q2098.5 1396.34 2100.54 1395.22 Q2102.6 1394.09 2105.44 1394.09 Q2110.17 1394.09 2113.11 1397.84 Q2116.07 1401.59 2116.07 1407.7 Q2116.07 1413.81 2113.11 1417.56 Q2110.17 1421.31 2105.44 1421.31 Q2102.6 1421.31 2100.54 1420.2 Q2098.5 1419.07 2097.16 1416.75 M2111.65 1407.7 Q2111.65 1403 2109.7 1400.34 Q2107.78 1397.65 2104.4 1397.65 Q2101.02 1397.65 2099.08 1400.34 Q2097.16 1403 2097.16 1407.7 Q2097.16 1412.4 2099.08 1415.09 Q2101.02 1417.75 2104.4 1417.75 Q2107.78 1417.75 2109.7 1415.09 Q2111.65 1412.4 2111.65 1407.7 Z" fill="#000000" fill-rule="nonzero" fill-opacity="1" /><path clip-path="url(#clip980)" d="M2127.34 1387.35 L2127.34 1394.71 L2136.12 1394.71 L2136.12 1398.03 L2127.34 1398.03 L2127.34 1412.1 Q2127.34 1415.27 2128.2 1416.17 Q2129.08 1417.08 2131.74 1417.08 L2136.12 1417.08 L2136.12 1420.64 L2131.74 1420.64 Q2126.81 1420.64 2124.93 1418.81 Q2123.06 1416.96 2123.06 1412.1 L2123.06 1398.03 L2119.93 1398.03 L2119.93 1394.71 L2123.06 1394.71 L2123.06 1387.35 L2127.34 1387.35 Z" fill="#000000" fill-rule="nonzero" fill-opacity="1" /><path clip-path="url(#clip980)" d="M1757.19 162.064 L3152.76 162.064 L3152.76 99.0841 L1757.19 99.0841  Z" fill="#ffffff" fill-rule="evenodd" fill-opacity="1"/>
<defs>
  <clipPath id="clip985">
    <rect x="1757" y="99" width="1397" height="64"/>
  </clipPath>
</defs>
<path clip-path="url(#clip980)" d="M2101.16 13.824 L2110.51 13.824 L2110.51 82.944 L2101.16 82.944 L2101.16 13.824 Z" fill="#000000" fill-rule="nonzero" fill-opacity="1" /><path clip-path="url(#clip980)" d="M2169.12 41.0461 Q2172.31 35.3054 2176.76 32.5739 Q2181.2 29.8424 2187.22 29.8424 Q2195.32 29.8424 2199.72 35.5368 Q2204.12 41.185 2204.12 51.6479 L2204.12 82.944 L2195.55 82.944 L2195.55 51.9256 Q2195.55 44.472 2192.91 40.8609 Q2190.28 37.2498 2184.86 37.2498 Q2178.24 37.2498 2174.4 41.6479 Q2170.55 46.046 2170.55 53.6386 L2170.55 82.944 L2161.99 82.944 L2161.99 51.9256 Q2161.99 44.4257 2159.35 40.8609 Q2156.71 37.2498 2151.2 37.2498 Q2144.67 37.2498 2140.83 41.6942 Q2136.99 46.0923 2136.99 53.6386 L2136.99 82.944 L2128.42 82.944 L2128.42 31.0924 L2136.99 31.0924 L2136.99 39.1479 Q2139.91 34.3794 2143.98 32.1109 Q2148.05 29.8424 2153.66 29.8424 Q2159.3 29.8424 2163.24 32.7128 Q2167.22 35.5831 2169.12 41.0461 Z" fill="#000000" fill-rule="nonzero" fill-opacity="1" /><path clip-path="url(#clip980)" d="M2229.35 75.1663 L2229.35 102.666 L2220.78 102.666 L2220.78 31.0924 L2229.35 31.0924 L2229.35 38.9628 Q2232.03 34.3331 2236.11 32.1109 Q2240.23 29.8424 2245.92 29.8424 Q2255.37 29.8424 2261.25 37.3424 Q2267.17 44.8424 2267.17 57.0645 Q2267.17 69.2867 2261.25 76.7866 Q2255.37 84.2866 2245.92 84.2866 Q2240.23 84.2866 2236.11 82.0644 Q2232.03 79.7959 2229.35 75.1663 M2258.33 57.0645 Q2258.33 47.6664 2254.44 42.3424 Q2250.6 36.972 2243.84 36.972 Q2237.08 36.972 2233.19 42.3424 Q2229.35 47.6664 2229.35 57.0645 Q2229.35 66.4626 2233.19 71.8329 Q2237.08 77.157 2243.84 77.157 Q2250.6 77.157 2254.44 71.8329 Q2258.33 66.4626 2258.33 57.0645 Z" fill="#000000" fill-rule="nonzero" fill-opacity="1" /><path clip-path="url(#clip980)" d="M2311.34 39.0553 Q2309.9 38.222 2308.19 37.8516 Q2306.53 37.435 2304.49 37.435 Q2297.27 37.435 2293.38 42.1572 Q2289.53 46.8331 2289.53 55.6293 L2289.53 82.944 L2280.97 82.944 L2280.97 31.0924 L2289.53 31.0924 L2289.53 39.1479 Q2292.22 34.4257 2296.53 32.1572 Q2300.83 29.8424 2306.99 29.8424 Q2307.87 29.8424 2308.93 29.9813 Q2310 30.0739 2311.29 30.3054 L2311.34 39.0553 Z" fill="#000000" fill-rule="nonzero" fill-opacity="1" /><path clip-path="url(#clip980)" d="M2338.28 37.0646 Q2331.43 37.0646 2327.45 42.435 Q2323.47 47.759 2323.47 57.0645 Q2323.47 66.37 2327.4 71.7404 Q2331.39 77.0644 2338.28 77.0644 Q2345.09 77.0644 2349.07 71.6941 Q2353.05 66.3237 2353.05 57.0645 Q2353.05 47.8516 2349.07 42.4813 Q2345.09 37.0646 2338.28 37.0646 M2338.28 29.8424 Q2349.4 29.8424 2355.74 37.0646 Q2362.08 44.2868 2362.08 57.0645 Q2362.08 69.7959 2355.74 77.0644 Q2349.4 84.2866 2338.28 84.2866 Q2327.13 84.2866 2320.78 77.0644 Q2314.49 69.7959 2314.49 57.0645 Q2314.49 44.2868 2320.78 37.0646 Q2327.13 29.8424 2338.28 29.8424 Z" fill="#000000" fill-rule="nonzero" fill-opacity="1" /><path clip-path="url(#clip980)" d="M2384.44 75.1663 L2384.44 102.666 L2375.88 102.666 L2375.88 31.0924 L2384.44 31.0924 L2384.44 38.9628 Q2387.13 34.3331 2391.2 32.1109 Q2395.32 29.8424 2401.02 29.8424 Q2410.46 29.8424 2416.34 37.3424 Q2422.27 44.8424 2422.27 57.0645 Q2422.27 69.2867 2416.34 76.7866 Q2410.46 84.2866 2401.02 84.2866 Q2395.32 84.2866 2391.2 82.0644 Q2387.13 79.7959 2384.44 75.1663 M2413.42 57.0645 Q2413.42 47.6664 2409.53 42.3424 Q2405.69 36.972 2398.93 36.972 Q2392.17 36.972 2388.28 42.3424 Q2384.44 47.6664 2384.44 57.0645 Q2384.44 66.4626 2388.28 71.8329 Q2392.17 77.157 2398.93 77.157 Q2405.69 77.157 2409.53 71.8329 Q2413.42 66.4626 2413.42 57.0645 Z" fill="#000000" fill-rule="nonzero" fill-opacity="1" /><path clip-path="url(#clip980)" d="M2480.74 54.8886 L2480.74 59.0552 L2441.57 59.0552 Q2442.13 67.8515 2446.85 72.4811 Q2451.62 77.0644 2460.09 77.0644 Q2465 77.0644 2469.58 75.8607 Q2474.21 74.657 2478.75 72.2496 L2478.75 80.3051 Q2474.16 82.2496 2469.35 83.2681 Q2464.53 84.2866 2459.58 84.2866 Q2447.17 84.2866 2439.9 77.0644 Q2432.68 69.8422 2432.68 57.5275 Q2432.68 44.7961 2439.53 37.3424 Q2446.43 29.8424 2458.1 29.8424 Q2468.56 29.8424 2474.63 36.6017 Q2480.74 43.3146 2480.74 54.8886 M2472.22 52.3886 Q2472.13 45.3979 2468.28 41.2313 Q2464.49 37.0646 2458.19 37.0646 Q2451.06 37.0646 2446.76 41.0924 Q2442.5 45.1201 2441.85 52.4349 L2472.22 52.3886 Z" fill="#000000" fill-rule="nonzero" fill-opacity="1" /><path clip-path="url(#clip980)" d="M2524.76 39.0553 Q2523.33 38.222 2521.62 37.8516 Q2519.95 37.435 2517.91 37.435 Q2510.69 37.435 2506.8 42.1572 Q2502.96 46.8331 2502.96 55.6293 L2502.96 82.944 L2494.39 82.944 L2494.39 31.0924 L2502.96 31.0924 L2502.96 39.1479 Q2505.64 34.4257 2509.95 32.1572 Q2514.26 29.8424 2520.41 29.8424 Q2521.29 29.8424 2522.36 29.9813 Q2523.42 30.0739 2524.72 30.3054 L2524.76 39.0553 Z" fill="#000000" fill-rule="nonzero" fill-opacity="1" /><path clip-path="url(#clip980)" d="M2605.64 16.0925 L2605.64 25.2128 Q2600.32 22.6665 2595.6 21.4166 Q2590.88 20.1666 2586.48 20.1666 Q2578.84 20.1666 2574.67 23.1295 Q2570.55 26.0925 2570.55 31.5554 Q2570.55 36.1387 2573.28 38.4998 Q2576.06 40.8146 2583.75 42.2498 L2589.39 43.4072 Q2599.86 45.3979 2604.81 50.4442 Q2609.81 55.4441 2609.81 63.87 Q2609.81 73.9163 2603.05 79.1014 Q2596.34 84.2866 2583.33 84.2866 Q2578.42 84.2866 2572.87 83.1755 Q2567.36 82.0644 2561.43 79.8885 L2561.43 70.2589 Q2567.13 73.4533 2572.59 75.0737 Q2578.05 76.694 2583.33 76.694 Q2591.34 76.694 2595.69 73.5459 Q2600.04 70.3978 2600.04 64.5645 Q2600.04 59.4719 2596.89 56.6015 Q2593.79 53.7312 2586.66 52.296 L2580.97 51.1849 Q2570.51 49.1016 2565.83 44.6572 Q2561.15 40.2127 2561.15 32.2961 Q2561.15 23.1295 2567.59 17.8518 Q2574.07 12.574 2585.41 12.574 Q2590.27 12.574 2595.32 13.4536 Q2600.37 14.3333 2605.64 16.0925 Z" fill="#000000" fill-rule="nonzero" fill-opacity="1" /><path clip-path="url(#clip980)" d="M2671.52 73.0829 L2671.52 54.5182 L2656.25 54.5182 L2656.25 46.8331 L2680.78 46.8331 L2680.78 76.5088 Q2675.37 80.3514 2668.84 82.3422 Q2662.31 84.2866 2654.9 84.2866 Q2638.7 84.2866 2629.53 74.8422 Q2620.41 65.3515 2620.41 48.4534 Q2620.41 31.5091 2629.53 22.0647 Q2638.7 12.574 2654.9 12.574 Q2661.66 12.574 2667.73 14.2407 Q2673.84 15.9073 2678.98 19.148 L2678.98 29.1017 Q2673.79 24.7036 2667.96 22.4814 Q2662.13 20.2592 2655.69 20.2592 Q2643 20.2592 2636.62 27.3424 Q2630.27 34.4257 2630.27 48.4534 Q2630.27 62.4349 2636.62 69.5181 Q2643 76.6014 2655.69 76.6014 Q2660.64 76.6014 2664.53 75.7681 Q2668.42 74.8885 2671.52 73.0829 Z" fill="#000000" fill-rule="nonzero" fill-opacity="1" /><path clip-path="url(#clip980)" d="M2697.87 13.824 L2707.22 13.824 L2707.22 75.0737 L2740.87 75.0737 L2740.87 82.944 L2697.87 82.944 L2697.87 13.824 Z" fill="#000000" fill-rule="nonzero" fill-opacity="1" /><path clip-path="url(#clip980)" d="M2760.04 21.5091 L2760.04 75.2589 L2771.34 75.2589 Q2785.64 75.2589 2792.26 68.7774 Q2798.93 62.296 2798.93 48.3146 Q2798.93 34.4257 2792.26 27.9906 Q2785.64 21.5091 2771.34 21.5091 L2760.04 21.5091 M2750.69 13.824 L2769.9 13.824 Q2789.99 13.824 2799.39 22.2036 Q2808.79 30.5369 2808.79 48.3146 Q2808.79 66.1848 2799.35 74.5644 Q2789.9 82.944 2769.9 82.944 L2750.69 82.944 L2750.69 13.824 Z" fill="#000000" fill-rule="nonzero" fill-opacity="1" /></svg>
